<svg width="50" height="55" viewBox="0 0 50 55" fill="none" xmlns="http://www.w3.org/2000/svg">
<path d="M41.6758 35.1768V5.83385C41.6758 3.62206 39.8765 1.82272 37.6647 1.82272H31.2402C31.1097 0.917162 30.3308 0.218262 29.3898 0.218262H20.2437C19.8006 0.218262 19.4415 0.577446 19.4415 1.02049C19.4415 1.46353 19.8006 1.82272 20.2437 1.82272H29.3898C29.5373 1.82272 29.6572 1.94273 29.6572 2.09013V4.2294C29.6572 6.14619 28.0978 7.70572 26.1809 7.70572H17.56C15.6431 7.70572 14.0837 6.14619 14.0837 4.2294V2.09013C14.0837 1.94273 14.2036 1.82272 14.3511 1.82272H16.5C16.9432 1.82272 17.3022 1.46353 17.3022 1.02049C17.3022 0.577446 16.9432 0.218262 16.5 0.218262H14.3511C13.41 0.218262 12.631 0.917162 12.5006 1.82272H4.47172C2.25993 1.82272 0.460587 3.62206 0.460587 5.83385V50.9725C0.460587 53.1843 2.25993 54.9837 4.47172 54.9837H37.6647C37.8617 54.9837 38.0586 54.9682 38.2522 54.9392C38.4235 54.9135 38.5977 54.9669 38.7717 54.9741C41.3419 55.0813 43.8885 54.1738 45.8031 52.5017C47.9159 50.6564 49.253 47.9442 49.253 44.9252C49.2531 40.235 46.0261 36.2846 41.6758 35.1768ZM13.8597 7.70572C14.7871 8.69224 16.1024 9.31017 17.56 9.31017H26.1809C27.6385 9.31017 28.9538 8.69224 29.8812 7.70572H35.7929V32.2956C35.7929 32.7386 36.152 33.0978 36.5952 33.0978C37.0383 33.0978 37.3974 32.7386 37.3974 32.2956V7.33135C37.3974 6.65309 36.8456 6.10126 36.1673 6.10126H30.9029C31.1335 5.52152 31.2617 4.89033 31.2617 4.2294V3.42717H37.6648C38.9918 3.42717 40.0715 4.50676 40.0715 5.83385V34.9055C39.7825 34.8805 39.4901 34.8669 39.1948 34.8669C33.6485 34.8669 29.1364 39.3791 29.1364 44.9253C29.1364 46.4142 29.4619 47.8282 30.0449 49.1008H6.34359V7.70572H13.8597ZM4.47172 53.3792C3.14473 53.3792 2.06504 52.2996 2.06504 50.9725V5.83385C2.06504 4.50676 3.14473 3.42717 4.47172 3.42717H12.4792V4.2294C12.4792 4.89033 12.6075 5.52152 12.8381 6.10126H5.96922C5.29096 6.10126 4.73913 6.65309 4.73913 7.33135V49.475C4.73913 50.1533 5.29096 50.7051 5.96922 50.7051H30.9675C31.7129 51.763 32.6521 52.6905 33.7453 53.3758C33.747 53.377 4.47172 53.3792 4.47172 53.3792ZM39.1947 53.3792C37.3837 53.3792 35.6129 52.7926 34.1624 51.7137C35.2457 49.9859 37.1215 48.9364 39.1947 48.9364C41.268 48.9364 43.1437 49.9859 44.227 51.7137C42.7794 52.7928 40.9974 53.3792 39.1947 53.3792ZM45.4323 50.6249C44.0376 48.5703 41.7328 47.3318 39.1947 47.3318C36.6566 47.3318 34.3518 48.5703 32.9571 50.6249C31.5815 49.1207 30.7407 47.1194 30.7407 44.9251C30.7407 40.2635 34.5331 36.4711 39.1947 36.4711C43.8563 36.4711 47.6487 40.2635 47.6487 44.9251C47.6487 47.1195 46.8079 49.1208 45.4323 50.6249ZM15.4526 21.9854H18.6615V25.1943C18.6615 25.9905 19.3093 26.6383 20.1055 26.6383H22.0309C22.8271 26.6383 23.4749 25.9905 23.4749 25.1943V21.9854H26.6838C27.48 21.9854 28.1278 21.3376 28.1278 20.5414V18.616C28.1278 17.8198 27.48 17.172 26.6838 17.172H23.4749V13.9631C23.4749 13.1669 22.8271 12.5191 22.0309 12.5191H20.1055C19.3093 12.5191 18.6615 13.1669 18.6615 13.9631V17.172H15.4526C14.6564 17.172 14.0086 17.8198 14.0086 18.616V20.5414C14.0086 21.3376 14.6564 21.9854 15.4526 21.9854ZM15.6131 18.7765H19.1429C19.7622 18.7765 20.266 18.2727 20.266 17.6533V14.1235H21.8704V17.6533C21.8704 18.2727 22.3742 18.7765 22.9936 18.7765H26.5234V20.3809H22.9936C22.3742 20.3809 21.8704 20.8847 21.8704 21.504V25.0338H20.266V21.504C20.266 20.8847 19.7622 20.3809 19.1429 20.3809H15.6131V18.7765ZM10.641 36.265H29.9997C30.4428 36.265 30.8019 35.9058 30.8019 35.4628C30.8019 35.0197 30.4428 34.6606 29.9997 34.6606H10.641C10.1978 34.6606 9.83873 35.0197 9.83873 35.4628C9.83873 35.9058 10.1978 36.265 10.641 36.265ZM10.641 31.4517H31.7819C32.2251 31.4517 32.5841 31.0925 32.5841 30.6494C32.5841 30.2064 32.2251 29.8472 31.7819 29.8472H10.641C10.1978 29.8472 9.83873 30.2064 9.83873 30.6494C9.83873 31.0925 10.1978 31.4517 10.641 31.4517ZM39.1947 38.3704C37.1663 38.3704 35.5161 40.0206 35.5161 42.049C35.5161 44.0773 37.1663 45.7276 39.1947 45.7276C41.223 45.7276 42.8733 44.0773 42.8733 42.049C42.8733 40.0206 41.223 38.3704 39.1947 38.3704ZM39.1947 44.123C38.051 44.123 37.1206 43.1925 37.1206 42.0489C37.1206 40.9052 38.0509 39.9747 39.1947 39.9747C40.3385 39.9747 41.2688 40.9052 41.2688 42.0489C41.2688 43.1925 40.3384 44.123 39.1947 44.123ZM10.641 45.8918H25.3641C25.8072 45.8918 26.1663 45.5326 26.1663 45.0895C26.1663 44.6465 25.8072 44.2873 25.3641 44.2873H10.641C10.1978 44.2873 9.83873 44.6465 9.83873 45.0895C9.83873 45.5326 10.1978 45.8918 10.641 45.8918ZM10.641 41.0784H26.9685C27.4117 41.0784 27.7708 40.7192 27.7708 40.2762C27.7708 39.8331 27.4117 39.4739 26.9685 39.4739H10.641C10.1978 39.4739 9.83873 39.8331 9.83873 40.2762C9.83873 40.7192 10.1978 41.0784 10.641 41.0784Z" fill="#0E5F8C"/>
</svg>
