<svg width="64" height="41" viewBox="0 0 64 41" fill="none" xmlns="http://www.w3.org/2000/svg">
<path d="M42.7357 23.1676L37.4107 20.8009C37.0345 20.6338 36.7917 20.2598 36.7917 19.8483V18.386C38.5804 16.9607 39.7301 14.766 39.7301 12.3064V10.248C40.3194 9.92238 40.7096 9.29314 40.7096 8.58839V8.38862C40.7096 4.10294 37.2228 0.616211 32.9372 0.616211H30.9783C26.6926 0.616211 23.2059 4.10294 23.2059 8.38862V10.2012C23.2059 10.8207 23.4725 11.3819 23.9372 11.7409C24.016 11.8018 24.0989 11.8553 24.1853 11.9016V12.3063C24.1853 14.7658 25.3349 16.9606 27.1236 18.3857V19.8481C27.1236 20.2597 26.8806 20.6337 26.5045 20.8008L21.1795 23.1675C19.4356 23.9425 18.3087 25.6765 18.3087 27.5849V39.7303C18.3087 40.2364 18.719 40.6467 19.2251 40.6467C19.7312 40.6467 20.1414 40.2364 20.1414 39.7303V27.585C20.1414 27.4788 20.149 27.3739 20.16 27.2698L22.6137 29.7234C22.9955 30.1054 23.2059 30.6131 23.2059 31.1532V39.7304C23.2059 40.2365 23.6162 40.6468 24.1223 40.6468C24.6284 40.6468 25.0386 40.2365 25.0386 39.7304V31.1532C25.0386 30.1236 24.6378 29.1557 23.9097 28.4276L20.9845 25.5023C21.2481 25.2288 21.5643 25.0022 21.924 24.8422L27.1591 22.5155L31.0415 26.3979V39.7303C31.0415 40.2364 31.4518 40.6467 31.9579 40.6467C32.4639 40.6467 32.8742 40.2364 32.8742 39.7303V26.398L36.7566 22.5156L41.9916 24.8422C42.3513 25.0022 42.6675 25.2288 42.9311 25.5024L40.0059 28.4276C39.2778 29.1557 38.8769 30.1236 38.8769 31.1532V39.7304C38.8769 40.2365 39.2872 40.6468 39.7933 40.6468C40.2994 40.6468 40.7097 40.2365 40.7097 39.7304V31.1532C40.7097 30.6132 40.92 30.1054 41.3019 29.7234L43.7555 27.2699C43.7665 27.374 43.774 27.4787 43.774 27.5849V39.7303C43.774 40.2364 44.1843 40.6467 44.6904 40.6467C45.1965 40.6467 45.6068 40.2364 45.6068 39.7303V27.585C45.6064 25.6766 44.4796 23.9426 42.7357 23.1676ZM31.9575 24.7225L28.5509 21.3158C28.8099 20.88 28.9562 20.3757 28.9562 19.8483V19.4754C29.8803 19.8637 30.8943 20.0788 31.9576 20.0788C33.021 20.0788 34.0348 19.8638 34.9588 19.4755V19.8483C34.9588 20.3758 35.105 20.88 35.3642 21.3159L31.9575 24.7225ZM31.9576 18.246C28.6825 18.2461 26.0179 15.5815 26.0179 12.3064V11.8943C26.5898 11.6676 27.1479 11.307 27.6822 10.8139C28.054 10.4707 28.0773 9.89098 27.734 9.51906C27.3908 9.14725 26.8112 9.12392 26.4391 9.46713C25.9808 9.89025 25.5229 10.1636 25.0784 10.2796C25.0676 10.2825 25.0597 10.2837 25.054 10.2842C25.0474 10.2713 25.0385 10.2445 25.0385 10.2013V8.38874C25.0385 5.11364 27.7031 2.44907 30.9782 2.44907H32.937C36.2123 2.44907 38.8767 5.11364 38.8767 8.38874V8.58851C38.8767 8.6182 38.8589 8.64398 38.8354 8.64863C33.3481 9.73239 30.5958 7.68986 29.6672 6.76127C29.3093 6.4034 28.7291 6.4034 28.3713 6.76127C28.0134 7.11914 28.0134 7.69939 28.3713 8.05714C31.2169 10.9028 35.3693 10.9541 37.8973 10.6503V12.3063C37.8973 15.5814 35.2327 18.246 31.9576 18.246Z" fill="#0E5F8C"/>
<path d="M17.203 18.1821V16.2229C17.203 13.8322 15.9607 11.7278 14.0887 10.5167C14.2043 10.1459 14.2647 9.75745 14.2647 9.36683C14.2647 7.24134 12.5355 5.51221 10.41 5.51221C8.28454 5.51221 6.55541 7.24146 6.55541 9.36683C6.55541 9.76233 6.61528 10.147 6.73111 10.5169C4.85927 11.7279 3.61704 13.8324 3.61704 16.2229V18.1817C3.61704 20.4967 4.78181 22.5437 6.55529 23.7707V25.7859C6.55529 26.1833 6.3345 26.5406 5.97907 26.7184L2.80953 28.3031C1.49521 28.9604 0.678787 30.2815 0.678787 31.751V39.7294C0.678787 40.2354 1.08908 40.6457 1.59516 40.6457C2.10124 40.6457 2.51153 40.2354 2.51153 39.7294V32.1473L4.00436 33.6401C4.38618 34.0221 4.59658 34.5297 4.59658 35.0699V39.7294C4.59658 40.2354 5.00687 40.6457 5.51295 40.6457C6.01903 40.6457 6.42932 40.2354 6.42932 39.7294V35.0699C6.42932 34.0403 6.02831 33.0724 5.30035 32.3443L3.22263 30.2666C3.21261 30.2565 3.20186 30.2479 3.1916 30.2384C3.32197 30.1234 3.46822 30.0232 3.62926 29.9425L6.7988 28.3578C6.96118 28.2766 7.11232 28.1806 7.2532 28.0741L9.49366 30.3147V39.7295C9.49366 40.2356 9.90395 40.6459 10.41 40.6459C10.9161 40.6459 11.3264 40.2356 11.3264 39.7295V30.3146L13.567 28.074C13.708 28.1806 13.859 28.2766 14.0214 28.3577L14.8954 28.7947C15.027 28.8606 15.1667 28.8918 15.3046 28.8918C15.6407 28.8918 15.9643 28.706 16.1249 28.3851C16.3513 27.9324 16.1678 27.3819 15.7151 27.1557L14.8411 26.7186C14.4856 26.5408 14.2648 26.1836 14.2648 25.7862V23.7711C16.0383 22.5441 17.203 20.4969 17.203 18.1821ZM10.41 7.34495C11.5249 7.34495 12.4319 8.25203 12.4319 9.36683C12.4319 9.48962 12.4209 9.60997 12.3999 9.72788C11.7702 9.53459 11.1022 9.42987 10.41 9.42987C9.71884 9.42987 9.05173 9.53422 8.42297 9.72702C8.40184 9.60912 8.38815 9.48938 8.38815 9.36683C8.38815 8.25191 9.29511 7.34495 10.41 7.34495ZM10.41 11.2627C13.1451 11.2627 15.3703 13.4879 15.3703 16.223V16.5551C11.5551 17.7232 9.28143 14.8209 9.18429 14.6938C9.02485 14.4813 8.78109 14.3483 8.5162 14.3295C8.25131 14.311 7.99106 14.4078 7.80326 14.5956C6.92856 15.4703 6.07181 15.8922 5.45308 16.0959C5.52089 13.4194 7.71761 11.2627 10.41 11.2627ZM10.41 28.639L8.29248 26.5214C8.35431 26.2851 8.38815 26.0388 8.38815 25.786V24.6674C9.02705 24.8671 9.70626 24.9747 10.41 24.9747C11.1138 24.9747 11.793 24.8671 12.4319 24.6674V25.786C12.4319 26.0388 12.4658 26.2852 12.5276 26.5214L10.41 28.639ZM10.41 23.142C7.67497 23.142 5.44978 20.9168 5.44978 18.1817V17.9918C6.18055 17.824 7.26407 17.4338 8.39438 16.5248C8.79429 16.9021 9.36586 17.3649 10.0937 17.7619C10.9546 18.2314 12.1436 18.6658 13.5958 18.6658C14.1477 18.6658 14.7382 18.6016 15.3625 18.4543C15.2204 21.0631 13.0536 23.142 10.41 23.142Z" fill="#0E5F8C"/>
<path d="M61.1056 26.3444L55.9772 23.7801C55.6218 23.6024 55.401 23.2451 55.401 22.8478V21.5491C56.6015 20.4833 57.3599 18.9301 57.3599 17.2024V16.1594C57.381 16.1594 57.4018 16.16 57.4229 16.16C57.929 16.16 58.3393 15.7497 58.3393 15.2436V13.2848C58.3393 10.0792 55.7313 7.47119 52.5257 7.47119H50.5669C47.3613 7.47119 44.7533 10.0792 44.7533 13.2848V15.2436C44.7533 15.7497 45.1636 16.16 45.6697 16.16C45.6772 16.16 45.6992 16.1597 45.7327 16.1584V17.2024C45.7327 18.9302 46.4912 20.4834 47.6917 21.5492V22.8479C47.6917 23.2453 47.4709 23.6026 47.1153 23.7803C46.6626 24.0065 46.4791 24.557 46.7055 25.0097C46.8661 25.3308 47.1897 25.5165 47.5259 25.5165C47.6636 25.5165 47.8033 25.4853 47.9349 25.4196C48.0973 25.3383 48.2485 25.2424 48.3893 25.1359L50.6299 27.3765V39.7295C50.6299 40.2356 51.0402 40.6459 51.5463 40.6459C52.0524 40.6459 52.4627 40.2356 52.4627 39.7295V27.3762L54.7031 25.1356C54.8441 25.2423 54.9951 25.3382 55.1575 25.4193L60.12 27.9006L58.6148 29.4058C57.8868 30.1339 57.4858 31.1018 57.4858 32.1315V39.7293C57.4858 40.2353 57.8961 40.6456 58.4022 40.6456C58.9083 40.6456 59.3186 40.2353 59.3186 39.7293V32.1315C59.3186 31.5914 59.5289 31.0836 59.9108 30.7017L61.3365 29.2759C61.3798 29.4417 61.4035 29.6146 61.4035 29.792V39.7293C61.4035 40.2353 61.8138 40.6456 62.3199 40.6456C62.826 40.6456 63.2362 40.2353 63.2362 39.7293V29.792C63.2364 28.3227 62.4199 27.0016 61.1056 26.3444ZM46.5859 14.1387V13.2846H46.586C46.586 11.0896 48.3719 9.30381 50.5669 9.30381H52.5257C54.7207 9.30381 56.5065 11.0896 56.5065 13.2846V14.3025C52.523 14.0876 50.1191 12.5375 50.0957 12.5222C49.9407 12.4189 49.7638 12.3683 49.5877 12.3683C49.3512 12.3683 49.1166 12.4597 48.9394 12.6367C48.0626 13.5135 47.2035 13.9355 46.5859 14.1387ZM51.5463 25.7007L49.4287 23.5832C49.4906 23.3469 49.5244 23.1006 49.5244 22.8478V22.6526C50.1544 22.8871 50.8356 23.0159 51.5463 23.0159C52.257 23.0159 52.9382 22.8871 53.5682 22.6526V22.8478C53.5682 23.1006 53.6019 23.3469 53.6638 23.5832L51.5463 25.7007ZM51.5463 21.1833C49.3513 21.1833 47.5655 19.3976 47.5655 17.2024V15.7251C48.2073 15.4687 48.955 15.0609 49.716 14.4126C50.6783 14.9133 52.6916 15.7788 55.5271 16.0647V17.2024C55.5271 19.3974 53.7413 21.1833 51.5463 21.1833Z" fill="#0E5F8C"/>
</svg>
