<svg width="62" height="62" viewBox="0 0 62 62" fill="none" xmlns="http://www.w3.org/2000/svg">
<mask id="mask0_182_60" style="mask-type:luminance" maskUnits="userSpaceOnUse" x="0" y="0" width="62" height="62">
<path d="M0.793274 0.476292H61.5846V61.2676H0.793274V0.476292Z" fill="white"/>
</mask>
<g mask="url(#mask0_182_60)">
<path fill-rule="evenodd" clip-rule="evenodd" d="M47.3664 12.7943C49.3139 14.7418 52.4713 14.7418 54.4188 12.7943C56.3663 10.8468 56.3663 7.68935 54.4188 5.74187C52.4713 3.79438 49.3139 3.79438 47.3664 5.74187C45.4189 7.68935 45.4189 10.8468 47.3664 12.7943ZM52.7396 11.1151C51.7195 12.1353 50.0656 12.1353 49.0455 11.1151C48.0254 10.095 48.0254 8.44113 49.0455 7.42101C50.0656 6.40088 51.7195 6.40088 52.7396 7.42101C53.7598 8.44113 53.7598 10.095 52.7396 11.1151Z" fill="#0E5F8C"/>
<path fill-rule="evenodd" clip-rule="evenodd" d="M7.95949 56.0003C9.90697 57.9478 13.0644 57.9478 15.0119 56.0003C16.9594 54.0528 16.9594 50.8954 15.0119 48.9479C13.0644 47.0004 9.90697 47.0004 7.95949 48.9479C6.012 50.8954 6.012 54.0528 7.95949 56.0003ZM13.3327 54.3212C12.3126 55.3413 10.6587 55.3413 9.63862 54.3212C8.6185 53.3011 8.6185 51.6472 9.63862 50.6271C10.6587 49.6069 12.3126 49.6069 13.3327 50.6271C14.3529 51.6472 14.3529 53.3011 13.3327 54.3212Z" fill="#0E5F8C"/>
<path fill-rule="evenodd" clip-rule="evenodd" d="M31.1892 58.8929C29.296 58.8929 27.448 58.7053 25.662 58.3481C25.019 58.2195 24.3934 58.6365 24.2648 59.2795C24.1362 59.9225 24.5532 60.548 25.1962 60.6766C27.1347 61.0643 29.1388 61.2676 31.1892 61.2676C47.9762 61.2676 61.5848 47.659 61.5848 30.8719C61.5848 23.5447 58.9903 16.8207 54.6716 11.5719C54.255 11.0656 53.5067 10.9928 53.0004 11.4095C52.494 11.8261 52.4213 12.5743 52.8379 13.0807C56.8198 17.9202 59.2102 24.1153 59.2102 30.8719C59.2102 46.3475 46.6648 58.8929 31.1892 58.8929Z" fill="#0E5F8C"/>
<path fill-rule="evenodd" clip-rule="evenodd" d="M9.37791 50.334C9.88428 49.9174 9.95702 49.1691 9.54038 48.6627C5.55843 43.8232 3.16809 37.6282 3.16809 30.8715C3.16809 15.396 15.7135 2.85052 31.1891 2.85052C33.101 2.85052 34.967 3.0419 36.7695 3.40607C37.4122 3.53593 38.0386 3.12014 38.1684 2.47738C38.2983 1.83463 37.8825 1.20829 37.2397 1.07844C35.2834 0.683186 33.2599 0.475857 31.1891 0.475857C14.402 0.475857 0.793427 14.0845 0.793427 30.8715C0.793427 38.1987 3.38797 44.9228 7.70665 50.1715C8.12329 50.6779 8.87154 50.7506 9.37791 50.334Z" fill="#0E5F8C"/>
<path fill-rule="evenodd" clip-rule="evenodd" d="M26.2898 51.2931C26.2898 51.9489 26.8214 52.4805 27.4772 52.4805H34.9013C35.5571 52.4805 36.0886 51.9489 36.0886 51.2931V48.9911C37.6659 48.566 39.1609 47.941 40.5447 47.1445L42.1698 48.7697C42.3925 48.9924 42.6946 49.1175 43.0096 49.1175C43.3245 49.1174 43.6266 48.9922 43.8492 48.7694L49.0969 43.5178C49.5603 43.0541 49.5601 42.3026 49.0966 41.839L47.4733 40.2158C48.2697 38.8321 48.8948 37.337 49.3199 35.7598H51.6133C52.2691 35.7598 52.8007 35.2282 52.8007 34.5725V27.1484C52.8007 26.4927 52.2691 25.9611 51.6133 25.9611H49.3198C48.8946 24.3839 48.2696 22.8888 47.4732 21.5052L49.0878 19.8905C49.3105 19.6678 49.4356 19.3657 49.4355 19.0507C49.4355 18.7358 49.3103 18.4337 49.0875 18.2111L43.836 12.9634C43.3723 12.5001 42.6208 12.5002 42.1572 12.9638L40.5444 14.5765C39.1608 13.7801 37.6658 13.1551 36.0886 12.73V10.449C36.0886 9.79325 35.5571 9.26167 34.9013 9.26167H27.4772C26.8214 9.26167 26.2898 9.79325 26.2898 10.449V12.73C24.7126 13.1551 23.2177 13.7801 21.8341 14.5765L20.2213 12.9638C19.7577 12.5002 19.0062 12.5001 18.5425 12.9634L13.291 18.2111C13.0682 18.4337 12.943 18.7358 12.9429 19.0507C12.9429 19.3657 13.068 19.6678 13.2907 19.8905L14.9053 21.5052C14.1089 22.8888 13.4838 24.3839 13.0587 25.9611H10.7692C10.1137 25.9611 9.58221 26.4923 9.58186 27.1478L9.57782 34.5718C9.57765 34.8868 9.70267 35.189 9.92535 35.4118C10.148 35.6346 10.4501 35.7598 10.7651 35.7598H13.0586C13.4837 37.337 14.1088 38.8321 14.9052 40.2158L13.2819 41.839C12.8184 42.3026 12.8182 43.0541 13.2816 43.5178L18.5293 48.7694C18.7519 48.9922 19.0539 49.1174 19.3689 49.1175C19.6839 49.1175 19.986 48.9924 20.2087 48.7697L21.8338 47.1445C23.2176 47.941 24.7126 48.566 26.2898 48.9911V51.2931ZM28.6645 50.1058V48.0573C28.6645 47.4977 28.2737 47.014 27.7266 46.8965C25.7643 46.4748 23.9322 45.7028 22.2991 44.6473C21.8291 44.3436 21.2108 44.4093 20.815 44.805L19.3694 46.2507L15.8003 42.6789L17.2447 41.2346C17.6404 40.8389 17.706 40.2206 17.4023 39.7506C16.347 38.1174 15.5749 36.2853 15.1533 34.323C15.0357 33.7759 14.5521 33.3851 13.9924 33.3851H11.9531L11.9559 28.3358H13.9925C14.5522 28.3358 15.0358 27.945 15.1534 27.3979C15.575 25.4356 16.3471 23.6035 17.4024 21.9705C17.7062 21.5005 17.6405 20.8822 17.2448 20.4865L15.8097 19.0513L19.3814 15.4822L20.8153 16.916C21.211 17.3117 21.8293 17.3774 22.2993 17.0737C23.9323 16.0183 25.7643 15.2463 27.7265 14.8248C28.2737 14.7072 28.6645 14.2236 28.6645 13.6639V11.6363H33.714V13.6639C33.714 14.2236 34.1048 14.7072 34.652 14.8248C36.6142 15.2463 38.4461 16.0183 40.0792 17.0737C40.5492 17.3774 41.1675 17.3117 41.5632 16.916L42.9971 15.4822L46.5688 19.0513L45.1337 20.4865C44.738 20.8822 44.6723 21.5005 44.9761 21.9705C46.0314 23.6035 46.8035 25.4356 47.2251 27.3979C47.3427 27.945 47.8263 28.3358 48.3859 28.3358H50.426V33.3851H48.3861C47.8264 33.3851 47.3428 33.7759 47.2252 34.323C46.8036 36.2853 46.0315 38.1174 44.9762 39.7506C44.6724 40.2206 44.7381 40.8389 45.1338 41.2346L46.5782 42.6789L43.0091 46.2507L41.5634 44.805C41.1677 44.4093 40.5494 44.3436 40.0794 44.6473C38.4463 45.7028 36.6142 46.4748 34.6519 46.8965C34.1048 47.014 33.714 47.4977 33.714 48.0573V50.1058H28.6645ZM21.3783 30.8711C21.3783 36.2896 25.7709 40.682 31.1892 40.682C36.6076 40.682 41.0001 36.2896 41.0001 30.8711C41.0001 25.4527 36.6076 21.0603 31.1892 21.0603C25.7709 21.0603 21.3783 25.4527 21.3783 30.8711ZM31.1892 38.3073C27.0824 38.3073 23.753 34.978 23.753 30.8711C23.753 26.7642 27.0823 23.4349 31.1892 23.4349C35.2961 23.4349 38.6255 26.7642 38.6255 30.8711C38.6255 34.978 35.2961 38.3073 31.1892 38.3073Z" fill="#0E5F8C"/>
</g>
</svg>
