<svg width="145" height="175" viewBox="0 0 145 175" fill="none" xmlns="http://www.w3.org/2000/svg">
<path d="M104.719 121.574L108.621 125.475V0H30.1724V27.1552C30.1724 28.8207 28.8207 30.1724 27.1552 30.1724H0V156.897H72.4138V123.707C72.4138 122.041 73.7655 120.69 75.431 120.69H102.586C103.386 120.69 104.155 121.006 104.719 121.574ZM102.586 90.5172H30.1724V84.4828H102.586V90.5172ZM84.4828 78.4483V72.4138H90.5172V78.4483H84.4828ZM102.586 78.4483H96.5517V72.4138H102.586V78.4483ZM102.586 66.3793H30.1724V60.3448H102.586V66.3793ZM84.4828 54.3103V48.2759H90.5172V54.3103H84.4828ZM102.586 54.3103H96.5517V48.2759H102.586V54.3103ZM30.1724 36.2069H102.586V42.2414H30.1724V36.2069ZM18.1034 36.2069H24.1379V42.2414H18.1034V36.2069ZM6.03448 36.2069H12.069V42.2414H6.03448V36.2069ZM6.03448 48.2759H78.4483V54.3103H6.03448V48.2759ZM24.1379 60.3448V66.3793H18.1034V60.3448H24.1379ZM6.03448 60.3448H12.069V66.3793H6.03448V60.3448ZM6.03448 72.4138H78.4483V78.4483H6.03448V72.4138ZM24.1379 84.4828V90.5172H18.1034V84.4828H24.1379ZM6.03448 84.4828H12.069V90.5172H6.03448V84.4828ZM78.4483 102.586H6.03448V96.5517H78.4483V102.586ZM90.5172 102.586H84.4828V96.5517H90.5172V102.586ZM96.5517 96.5517H102.586V102.586H96.5517V96.5517Z" fill="#C4EAFF"/>
<path d="M24.1379 4.26636L4.26636 24.1379H24.1379V4.26636Z" fill="#C4EAFF"/>
<path d="M111.638 135.776C110.838 135.776 110.069 135.459 109.505 134.892L101.337 126.724H78.4482V160.888L84.6638 143.796C85.0982 142.604 86.2327 141.81 87.5 141.81H144.828V135.776H111.638Z" fill="#C4EAFF"/>
<path d="M79.7397 175H144.828V147.845H89.6122L79.7397 175Z" fill="#C4EAFF"/>
<path d="M120.69 24.1379H126.724V132.759H120.69V24.1379Z" fill="#C4EAFF"/>
<path d="M18.1035 168.966H75.4311V175H18.1035V168.966Z" fill="#C4EAFF"/>
</svg>
