<svg xmlns="http://www.w3.org/2000/svg" width="20" height="20" viewBox="0 0 20 20" fill="none">
  <path fill-rule="evenodd" clip-rule="evenodd"
    d="M17 0H3C1.34315 0 0 1.34315 0 3V17C0 18.6569 1.34315 20 3 20H17C18.6569 20 20 18.6569 20 17V3C20 1.34315 18.6569 0 17 0ZM18 17C18 17.5523 17.5523 18 17 18H3C2.4477 18 1.99999 17.5523 1.99999 17V3C1.99999 2.44774 2.4477 1.99999 3 1.99999H17C17.5523 1.99999 18 2.44774 18 3V17Z"
    fill="#0E5F8C" />
  <path
    d="M15.6707 5.27976C16.0584 5.6698 16.0584 6.29972 15.6707 6.68976L8.21064 14.6298C8.02044 14.8293 7.75633 14.9415 7.48066 14.9398C7.205 14.9415 6.94085 14.8293 6.75065 14.6298L4.31064 11.9998C4.03464 11.7468 3.92307 11.3608 4.02159 10.9995C4.1201 10.6383 4.41215 10.3623 4.77841 10.2845C5.14464 10.2066 5.52369 10.3399 5.76065 10.6298L7.52064 12.4998L14.2507 5.33976C14.4303 5.14228 14.6814 5.02487 14.9482 5.01359C15.2149 5.00234 15.475 5.09815 15.6707 5.27976Z"
    fill="#0E5F8C" />
</svg>