<svg xmlns="http://www.w3.org/2000/svg" width="16" height="16" viewBox="0 0 16 16" fill="none">
  <path
    d="M2.20575 3.19995C1.53995 3.19995 1 3.73987 1 4.40615C1 5.07194 1.53995 5.61141 2.20575 5.61141C2.87154 5.61141 3.41149 5.07194 3.41149 4.40615C3.41149 3.73987 2.87154 3.19995 2.20575 3.19995Z"
    fill="#0E5F8C" />
  <path
    d="M2.20575 6.82751C1.53995 6.82751 1 7.36699 1 8.03326C1 8.69905 1.53995 9.23898 2.20575 9.23898C2.87154 9.23898 3.41149 8.69905 3.41149 8.03326C3.41149 7.36699 2.87154 6.82751 2.20575 6.82751Z"
    fill="#0E5F8C" />
  <path
    d="M2.20575 10.4547C1.53995 10.4547 1 10.9946 1 11.6604C1 12.3262 1.53995 12.8661 2.20575 12.8661C2.87154 12.8661 3.41149 12.3262 3.41149 11.6604C3.41149 10.9946 2.87154 10.4547 2.20575 10.4547Z"
    fill="#0E5F8C" />
  <path
    d="M13.9601 3.49896H5.38325C4.88257 3.49896 4.47656 3.90497 4.47656 4.4061C4.47656 4.90681 4.88254 5.31278 5.38325 5.31278H13.9601C14.4607 5.31278 14.8668 4.90681 14.8668 4.4061C14.8668 3.90497 14.4607 3.49896 13.9601 3.49896Z"
    fill="#0E5F8C" />
  <path
    d="M13.9601 7.1261H5.38325C4.88257 7.1261 4.47656 7.53207 4.47656 8.03323C4.47656 8.53394 4.88254 8.93992 5.38325 8.93992H13.9601C14.4607 8.93992 14.8668 8.53394 14.8668 8.03323C14.8668 7.53207 14.4607 7.1261 13.9601 7.1261Z"
    fill="#0E5F8C" />
  <path
    d="M13.9601 10.7538H5.38325C4.88257 10.7538 4.47656 11.1598 4.47656 11.6605C4.47656 12.1611 4.88254 12.5671 5.38325 12.5671H13.9601C14.4607 12.5671 14.8668 12.1611 14.8668 11.6605C14.8668 11.1597 14.4607 10.7538 13.9601 10.7538Z"
    fill="#0E5F8C" />
</svg>