<svg xmlns="http://www.w3.org/2000/svg" width="16" height="16" viewBox="0 0 16 16" fill="none">
  <path
    d="M7.99974 1.06665C6.62846 1.06665 5.28797 1.47328 4.14779 2.23513C3.00761 2.99697 2.11895 4.07981 1.59418 5.34671C1.06941 6.61361 0.932107 8.00767 1.19963 9.35261C1.46716 10.6975 2.12749 11.9329 3.09714 12.9026C4.06678 13.8722 5.30218 14.5326 6.64712 14.8001C7.99205 15.0676 9.38611 14.9303 10.653 14.4055C11.9199 13.8808 13.0028 12.9921 13.7646 11.8519C14.5264 10.7118 14.9331 9.37127 14.9331 7.99998C14.9331 7.08948 14.7537 6.1879 14.4053 5.34671C14.0569 4.50552 13.5462 3.7412 12.9023 3.09738C12.2585 2.45356 11.4942 1.94285 10.653 1.59442C9.81182 1.24599 8.91024 1.06665 7.99974 1.06665ZM7.99974 13.5466C6.90271 13.5466 5.83032 13.2213 4.91818 12.6119C4.00603 12.0024 3.2951 11.1361 2.87529 10.1226C2.45548 9.10908 2.34563 7.99383 2.55965 6.91788C2.77367 5.84193 3.30194 4.85361 4.07766 4.0779C4.85337 3.30218 5.84169 2.77391 6.91764 2.55989C7.99359 2.34588 9.10884 2.45572 10.1224 2.87553C11.1359 3.29535 12.0021 4.00628 12.6116 4.91842C13.2211 5.83056 13.5464 6.90296 13.5464 7.99998C13.5464 9.47105 12.962 10.8819 11.9218 11.9221C10.8816 12.9623 9.47081 13.5466 7.99974 13.5466Z"
    fill="#0E5F8C" />
  <path
    d="M10.7733 7.30679H8.69331V3.84012C8.69331 3.65624 8.62026 3.47989 8.49023 3.34986C8.36021 3.21984 8.18386 3.14679 7.99997 3.14679C7.81609 3.14679 7.63974 3.21984 7.50971 3.34986C7.37969 3.47989 7.30664 3.65624 7.30664 3.84012V8.00012C7.30664 8.18401 7.37969 8.36036 7.50971 8.49038C7.63974 8.62041 7.81609 8.69346 7.99997 8.69346H10.7733C10.9572 8.69346 11.1335 8.62041 11.2636 8.49038C11.3936 8.36036 11.4666 8.18401 11.4666 8.00012C11.4666 7.81624 11.3936 7.63989 11.2636 7.50986C11.1335 7.37984 10.9572 7.30679 10.7733 7.30679Z"
    fill="#0E5F8C" />
</svg>