<svg width="19" height="19" viewBox="0 0 19 19" fill="none" xmlns="http://www.w3.org/2000/svg">
<path d="M18.1806 17.8746C18.1806 18.4975 17.6757 19.0024 17.0528 19.0024H1.26401C0.641156 19.0024 0.13623 18.4975 0.13623 17.8746C0.13623 17.2518 0.641156 16.7469 1.26401 16.7469H17.0528C17.6757 16.7469 18.1806 17.2518 18.1806 17.8746ZM8.36098 14.302C8.58122 14.5222 8.86979 14.6323 9.15843 14.6323C9.447 14.6323 9.73571 14.5222 9.95587 14.302L13.9516 10.3062C14.3921 9.86581 14.3921 9.15175 13.9516 8.71132C13.5112 8.27089 12.7972 8.27089 12.3567 8.71132L10.2862 10.7818V2.08578C10.2862 1.46293 9.78128 0.958008 9.15843 0.958008C8.53558 0.958008 8.03065 1.46293 8.03065 2.08578V10.7818L5.96013 8.71132C5.5197 8.27089 4.80564 8.27089 4.36521 8.71132C3.92478 9.15175 3.92478 9.86581 4.36521 10.3062L8.36098 14.302Z" fill="#229CE1"/>
</svg>
