<svg width="9" height="15" viewBox="0 0 9 15" fill="red" xmlns="http://www.w3.org/2000/svg">
<path d="M7.99043 6.83599L1.90408 0.749744C1.76331 0.608863 1.57539 0.53125 1.37502 0.53125C1.17465 0.53125 0.986737 0.608863 0.845967 0.749744L0.397749 1.19785C0.10609 1.48984 0.10609 1.96441 0.397749 2.25596L5.50861 7.36682L0.392078 12.4834C0.251308 12.6242 0.173584 12.812 0.173584 13.0123C0.173584 13.2128 0.251308 13.4006 0.392078 13.5416L0.840296 13.9896C0.981177 14.1305 1.16898 14.2081 1.36935 14.2081C1.56972 14.2081 1.75764 14.1305 1.89841 13.9896L7.99043 7.89777C8.13154 7.75644 8.20904 7.56775 8.20859 7.36716C8.20904 7.16579 8.13154 6.97721 7.99043 6.83599Z" fill="#578695"/>
</svg>
