<svg width="23" height="22" viewBox="0 0 23 22" fill="none" xmlns="http://www.w3.org/2000/svg">
<path d="M3.01899 21.8308C2.48336 21.8619 1.95659 21.6839 1.54976 21.3342C0.747411 20.527 0.747411 19.2235 1.54976 18.4164L19.1186 0.847461C19.9531 0.0665778 21.2626 0.109987 22.0435 0.944501C22.7496 1.69915 22.7908 2.85906 22.1398 3.66182L4.46749 21.3342C4.06591 21.6788 3.54759 21.8566 3.01899 21.8308Z" fill="#229CE1"/>
<path d="M20.5672 21.8306C20.0243 21.8282 19.504 21.6128 19.1186 21.2305L1.54971 3.6615C0.806376 2.79346 0.907437 1.4871 1.77548 0.743695C2.55023 0.0802267 3.69283 0.0802267 4.46751 0.743695L22.1399 18.3126C22.9742 19.0937 23.0173 20.4032 22.2362 21.2375C22.2051 21.2707 22.173 21.3028 22.1399 21.3339C21.7071 21.7102 21.1376 21.89 20.5672 21.8306Z" fill="#229CE1"/>
</svg>
