<svg width="23" height="16" viewBox="0 0 23 16" fill="none" xmlns="http://www.w3.org/2000/svg">
<path d="M14.7591 8.77637L12.9281 10.6135C12.1856 11.3586 10.8792 11.3747 10.1207 10.6135L8.28961 8.77637L1.71332 15.374C1.95811 15.4872 2.22801 15.5547 2.51494 15.5547H20.5338C20.8208 15.5547 21.0906 15.4873 21.3353 15.374L14.7591 8.77637Z" fill="#578695"/>
<path d="M20.5338 0.183594H2.51492C2.22798 0.183594 1.95809 0.251143 1.71338 0.364338L8.74061 7.41488C8.74108 7.41535 8.74163 7.41544 8.7421 7.41591C8.74257 7.41638 8.74266 7.41702 8.74266 7.41702L11.0276 9.70951C11.2703 9.95221 11.7785 9.95221 12.0212 9.70951L14.3057 7.4174C14.3057 7.4174 14.3062 7.41638 14.3067 7.41591C14.3067 7.41591 14.3077 7.41535 14.3082 7.41488L21.3352 0.364295C21.0905 0.251058 20.8207 0.183594 20.5338 0.183594Z" fill="#578695"/>
<path d="M0.797862 1.25977C0.671218 1.51587 0.593506 1.80016 0.593506 2.10469V13.6334C0.593506 13.9379 0.671132 14.2222 0.797819 14.4783L7.38551 7.86923L0.797862 1.25977Z" fill="#578695"/>
<path d="M22.2509 1.25977L15.6633 7.86932L22.2509 14.4784C22.3776 14.2223 22.4553 13.938 22.4553 13.6334V2.10477C22.4553 1.80016 22.3776 1.51587 22.2509 1.25977Z" fill="#578695"/>
</svg>
