<svg width="107" height="97" viewBox="0 0 107 97" fill="none" xmlns="http://www.w3.org/2000/svg">
<path d="M53.5717 9.18899C30.3641 -11.1094 0.856079 6.72535 0.372211 30.9032C0.248905 37.0649 2.02759 43.067 5.56813 48.6004H28.5168L32.5986 41.7972C33.7839 39.822 36.6521 39.7584 37.9045 41.7275L46.5166 55.2606L59.0704 28.7589C60.1652 26.4465 63.4279 26.3731 64.6354 28.6154L75.3965 48.6004H101.575C120.968 18.2916 82.6417 -16.2365 53.5717 9.18899Z" fill="url(#paint0_linear_183_3534)" fill-opacity="0.41"/>
<path d="M70.7876 53.1982L62.0676 37.0039L49.7367 63.0355C48.6877 65.2502 45.6021 65.4425 44.2865 63.3748L35.3515 49.3343L32.9575 53.3242C32.3938 54.2637 31.3786 54.8384 30.283 54.8384H10.5024C11.1225 55.4874 7.81777 52.1893 51.3719 95.5179C52.5884 96.7283 54.5548 96.7285 55.7715 95.5179C98.6554 52.8559 96.0221 55.4861 96.641 54.8384H73.5338C72.3862 54.8386 71.3316 54.2086 70.7876 53.1982Z" fill="url(#paint1_linear_183_3534)" fill-opacity="0.41"/>
<defs>
<linearGradient id="paint0_linear_183_3534" x1="26.0692" y1="-10.9836" x2="40.7934" y2="86.6453" gradientUnits="userSpaceOnUse">
<stop stop-color="#0086D1"/>
<stop offset="1" stop-color="#27D1E8"/>
</linearGradient>
<linearGradient id="paint1_linear_183_3534" x1="31.2969" y1="24.7346" x2="52.2449" y2="128.568" gradientUnits="userSpaceOnUse">
<stop stop-color="#0086D1"/>
<stop offset="1" stop-color="#27D1E8"/>
</linearGradient>
</defs>
</svg>
