<svg width="28" height="26" viewBox="0 0 28 26" fill="none" xmlns="http://www.w3.org/2000/svg">
<path d="M13.882 2.42936C7.83949 -2.85564 0.156598 1.78792 0.030615 8.083C-0.00148978 9.68731 0.46162 11.2501 1.38346 12.6908H7.35852L8.42128 10.9194C8.72987 10.4052 9.47667 10.3886 9.80276 10.9013L12.0451 14.4249L15.3136 7.52471C15.5987 6.92262 16.4482 6.90351 16.7626 7.48735L19.5644 12.6908H26.3805C31.4296 4.79938 21.4508 -4.19056 13.882 2.42936Z" fill="white"/>
<path d="M18.3643 13.8883L16.0939 9.67188L12.8834 16.4496C12.6102 17.0263 11.8069 17.0763 11.4643 16.538L9.13793 12.8823L8.51462 13.9211C8.36785 14.1657 8.10354 14.3154 7.81828 14.3154H2.66809C2.82954 14.4843 1.96909 13.6256 13.3091 24.9069C13.6258 25.2221 14.1378 25.2221 14.4546 24.9069C25.6201 13.7992 24.9345 14.484 25.0956 14.3154H19.0793C18.7805 14.3154 18.5059 14.1514 18.3643 13.8883Z" fill="white"/>
</svg>
