<svg width="19" height="22" viewBox="0 0 19 22" fill="none" xmlns="http://www.w3.org/2000/svg">
<path d="M15.9131 8.46984H15.1836V5.82788C15.1836 2.91379 12.5662 0.543945 9.34758 0.543945C6.129 0.543945 3.51153 2.91379 3.51153 5.82788V8.46984H2.78202C1.57591 8.46984 0.593506 9.35843 0.593506 10.4513V19.6982C0.593506 20.7911 1.57591 21.6797 2.78202 21.6797H15.9131C17.1193 21.6797 18.1017 20.7911 18.1017 19.6982V10.4513C18.1017 9.35843 17.1193 8.46984 15.9131 8.46984ZM5.45688 5.82788C5.45688 3.88515 7.20186 2.30526 9.34758 2.30526C11.4933 2.30526 13.2383 3.88515 13.2383 5.82788V8.46984H5.45688V5.82788ZM10.3203 15.2703V17.2764C10.3203 17.7625 9.88547 18.1571 9.34758 18.1571C8.80969 18.1571 8.37491 17.7625 8.37491 17.2764V15.2703C7.79616 14.9647 7.40223 14.4028 7.40223 13.7538C7.40223 12.7824 8.27472 11.9925 9.34758 11.9925C10.4204 11.9925 11.2929 12.7824 11.2929 13.7538C11.2929 14.4028 10.899 14.9647 10.3203 15.2703Z" fill="#578695"/>
</svg>
