<svg width="479" height="109" viewBox="0 0 479 109" fill="none" xmlns="http://www.w3.org/2000/svg">
<path d="M63.1689 24.3979V85.2285H49.0909V60.288H21.4565V85.2285H7.37854V24.3979H21.4565V48.3826H49.0909V24.3979H63.1689ZM128.485 62.026C128.485 62.1998 128.398 63.4164 128.224 65.6758H92.8557C93.493 68.5725 94.9992 70.8609 97.3745 72.541C99.7498 74.2211 102.704 75.0611 106.238 75.0611C108.672 75.0611 110.815 74.7135 112.669 74.0183C114.581 73.2652 116.348 72.1065 117.97 70.5423L125.183 78.3634C120.78 83.4036 114.349 85.9237 105.891 85.9237C100.619 85.9237 95.9552 84.9099 91.8998 82.8822C87.8444 80.7966 84.716 77.9288 82.5145 74.279C80.313 70.6292 79.2123 66.4869 79.2123 61.8522C79.2123 57.2754 80.284 53.1621 82.4276 49.5123C84.6291 45.8045 87.6127 42.9368 91.3784 40.9091C95.202 38.8235 99.4602 37.7807 104.153 37.7807C108.73 37.7807 112.872 38.7655 116.58 40.7353C120.287 42.705 123.184 45.5438 125.27 49.2516C127.413 52.9014 128.485 57.1595 128.485 62.026ZM104.24 48.035C101.169 48.035 98.5911 48.904 96.5055 50.642C94.4199 52.38 93.1454 54.7553 92.6819 57.7679H115.711C115.247 54.8132 113.973 52.4669 111.887 50.7289C109.801 48.9329 107.252 48.035 104.24 48.035ZM161.178 37.7807C168.42 37.7807 173.981 39.5187 177.863 42.9947C181.745 46.4128 183.685 51.5979 183.685 58.55V85.2285H170.998V79.4062C168.449 83.7512 163.698 85.9237 156.746 85.9237C153.154 85.9237 150.026 85.3154 147.361 84.0988C144.754 82.8822 142.755 81.2021 141.365 79.0586C139.974 76.915 139.279 74.4818 139.279 71.7589C139.279 67.4138 140.901 63.9957 144.146 61.5046C147.448 59.0134 152.517 57.7679 159.353 57.7679H170.129C170.129 54.8132 169.231 52.5538 167.435 50.9896C165.639 49.3674 162.945 48.5564 159.353 48.5564C156.862 48.5564 154.4 48.9619 151.967 49.773C149.591 50.5261 147.564 51.5689 145.884 52.9014L141.017 43.4292C143.566 41.6333 146.608 40.2429 150.142 39.258C153.734 38.2731 157.412 37.7807 161.178 37.7807ZM160.135 76.7991C162.453 76.7991 164.509 76.2777 166.305 75.2349C168.101 74.1342 169.376 72.541 170.129 70.4554V65.6758H160.83C155.269 65.6758 152.488 67.5007 152.488 71.1506C152.488 72.8886 153.154 74.279 154.487 75.3218C155.877 76.3067 157.76 76.7991 160.135 76.7991ZM202.038 20.7481H215.594V85.2285H202.038V20.7481ZM290.571 85.2285L290.484 48.7302L272.582 78.7979H266.238L248.424 49.5123V85.2285H235.215V24.3979H246.86L269.628 62.1998L292.048 24.3979H303.606L303.78 85.2285H290.571ZM369.136 62.026C369.136 62.1998 369.049 63.4164 368.875 65.6758H333.506C334.144 68.5725 335.65 70.8609 338.025 72.541C340.401 74.2211 343.355 75.0611 346.889 75.0611C349.322 75.0611 351.466 74.7135 353.32 74.0183C355.232 73.2652 356.999 72.1065 358.621 70.5423L365.834 78.3634C361.431 83.4036 355 85.9237 346.542 85.9237C341.27 85.9237 336.606 84.9099 332.551 82.8822C328.495 80.7966 325.367 77.9288 323.165 74.279C320.964 70.6292 319.863 66.4869 319.863 61.8522C319.863 57.2754 320.935 53.1621 323.078 49.5123C325.28 45.8045 328.263 42.9368 332.029 40.9091C335.853 38.8235 340.111 37.7807 344.804 37.7807C349.38 37.7807 353.523 38.7655 357.23 40.7353C360.938 42.705 363.835 45.5438 365.92 49.2516C368.064 52.9014 369.136 57.1595 369.136 62.026ZM344.89 48.035C341.82 48.035 339.242 48.904 337.156 50.642C335.071 52.38 333.796 54.7553 333.333 57.7679H356.361C355.898 54.8132 354.623 52.4669 352.538 50.7289C350.452 48.9329 347.903 48.035 344.89 48.035Z" fill="white"/>
<path d="M431.638 18.9049C411.042 0.890207 384.853 16.7185 384.424 38.1762C384.314 43.6448 385.893 48.9716 389.035 53.8825H409.402L413.025 47.8446C414.077 46.0916 416.622 46.0352 417.734 47.7828L425.377 59.7934L436.518 36.2732C437.49 34.2209 440.386 34.1558 441.457 36.1459L451.008 53.8825H474.241C491.452 26.9835 457.438 -3.66007 431.638 18.9049Z" fill="white"/>
<path d="M446.917 57.9632L439.178 43.5908L428.235 66.6938C427.304 68.6593 424.565 68.83 423.398 66.9949L415.468 54.534L413.343 58.0751C412.843 58.9088 411.942 59.4189 410.97 59.4189H393.414C393.965 59.9949 391.032 57.0678 429.686 95.5218C430.765 96.596 432.511 96.5962 433.59 95.5218C471.65 57.6595 469.313 59.9937 469.862 59.4189H449.354C448.336 59.4191 447.4 58.8599 446.917 57.9632Z" fill="white"/>
</svg>
