<svg width="480" height="109" viewBox="0 0 480 109" fill="none" xmlns="http://www.w3.org/2000/svg">
<path d="M63.4928 24.3979V85.2285H49.4149V60.288H21.7804V85.2285H7.70251V24.3979H21.7804V48.3826H49.4149V24.3979H63.4928ZM128.809 62.026C128.809 62.1998 128.722 63.4164 128.548 65.6758H93.1797C93.8169 68.5725 95.3232 70.8609 97.6985 72.541C100.074 74.2211 103.028 75.0611 106.562 75.0611C108.996 75.0611 111.139 74.7135 112.993 74.0183C114.905 73.2652 116.672 72.1065 118.294 70.5423L125.507 78.3634C121.104 83.4036 114.673 85.9237 106.215 85.9237C100.943 85.9237 96.2791 84.9099 92.2238 82.8822C88.1684 80.7966 85.04 77.9288 82.8385 74.279C80.637 70.6292 79.5362 66.4869 79.5362 61.8522C79.5362 57.2754 80.608 53.1621 82.7516 49.5123C84.9531 45.8045 87.9366 42.9368 91.7024 40.9091C95.526 38.8235 99.7841 37.7807 104.477 37.7807C109.054 37.7807 113.196 38.7655 116.904 40.7353C120.611 42.705 123.508 45.5438 125.594 49.2516C127.737 52.9014 128.809 57.1595 128.809 62.026ZM104.564 48.035C101.493 48.035 98.9151 48.904 96.8295 50.642C94.7439 52.38 93.4693 54.7553 93.0059 57.7679H116.035C115.571 54.8132 114.297 52.4669 112.211 50.7289C110.125 48.9329 107.576 48.035 104.564 48.035ZM161.502 37.7807C168.744 37.7807 174.305 39.5187 178.187 42.9947C182.069 46.4128 184.009 51.5979 184.009 58.55V85.2285H171.322V79.4062C168.773 83.7512 164.022 85.9237 157.07 85.9237C153.478 85.9237 150.35 85.3154 147.685 84.0988C145.078 82.8822 143.079 81.2021 141.689 79.0586C140.298 76.915 139.603 74.4818 139.603 71.7589C139.603 67.4138 141.225 63.9957 144.469 61.5046C147.772 59.0134 152.841 57.7679 159.677 57.7679H170.453C170.453 54.8132 169.555 52.5538 167.759 50.9896C165.963 49.3674 163.269 48.5564 159.677 48.5564C157.186 48.5564 154.724 48.9619 152.291 49.773C149.915 50.5261 147.888 51.5689 146.208 52.9014L141.341 43.4292C143.89 41.6333 146.932 40.2429 150.466 39.258C154.058 38.2731 157.736 37.7807 161.502 37.7807ZM160.459 76.7991C162.777 76.7991 164.833 76.2777 166.629 75.2349C168.425 74.1342 169.7 72.541 170.453 70.4554V65.6758H161.154C155.593 65.6758 152.812 67.5007 152.812 71.1506C152.812 72.8886 153.478 74.279 154.811 75.3218C156.201 76.3067 158.084 76.7991 160.459 76.7991ZM202.362 20.7481H215.918V85.2285H202.362V20.7481ZM290.895 85.2285L290.808 48.7302L272.906 78.7979H266.562L248.748 49.5123V85.2285H235.539V24.3979H247.184L269.952 62.1998L292.372 24.3979H303.93L304.104 85.2285H290.895ZM369.46 62.026C369.46 62.1998 369.373 63.4164 369.199 65.6758H333.83C334.468 68.5725 335.974 70.8609 338.349 72.541C340.725 74.2211 343.679 75.0611 347.213 75.0611C349.646 75.0611 351.79 74.7135 353.644 74.0183C355.556 73.2652 357.323 72.1065 358.945 70.5423L366.158 78.3634C361.755 83.4036 355.324 85.9237 346.866 85.9237C341.594 85.9237 336.93 84.9099 332.875 82.8822C328.819 80.7966 325.691 77.9288 323.489 74.279C321.288 70.6292 320.187 66.4869 320.187 61.8522C320.187 57.2754 321.259 53.1621 323.402 49.5123C325.604 45.8045 328.587 42.9368 332.353 40.9091C336.177 38.8235 340.435 37.7807 345.128 37.7807C349.704 37.7807 353.847 38.7655 357.554 40.7353C361.262 42.705 364.159 45.5438 366.244 49.2516C368.388 52.9014 369.46 57.1595 369.46 62.026ZM345.214 48.035C342.144 48.035 339.566 48.904 337.48 50.642C335.395 52.38 334.12 54.7553 333.657 57.7679H356.685C356.222 54.8132 354.947 52.4669 352.862 50.7289C350.776 48.9329 348.227 48.035 345.214 48.035Z" fill="url(#paint0_linear_5_192)"/>
<path d="M431.962 18.9049C411.366 0.890207 385.177 16.7185 384.748 38.1762C384.638 43.6448 386.217 48.9716 389.359 53.8825H409.726L413.349 47.8446C414.401 46.0916 416.946 46.0352 418.058 47.7828L425.701 59.7934L436.842 36.2732C437.814 34.2209 440.71 34.1558 441.781 36.1459L451.332 53.8825H474.565C491.776 26.9835 457.762 -3.66007 431.962 18.9049Z" fill="url(#paint1_linear_5_192)"/>
<path d="M447.241 57.9632L439.502 43.5908L428.559 66.6938C427.628 68.6593 424.889 68.83 423.722 66.9949L415.792 54.534L413.667 58.0751C413.167 58.9088 412.266 59.4189 411.293 59.4189H393.738C394.289 59.9949 391.356 57.0678 430.01 95.5218C431.089 96.596 432.835 96.5962 433.914 95.5218C471.974 57.6595 469.637 59.9937 470.186 59.4189H449.678C448.66 59.4191 447.724 58.8599 447.241 57.9632Z" fill="url(#paint2_linear_5_192)"/>
<defs>
<linearGradient id="paint0_linear_5_192" x1="90.2934" y1="-22.0711" x2="106.85" y2="172.923" gradientUnits="userSpaceOnUse">
<stop stop-color="#0086D1"/>
<stop offset="1" stop-color="#27D1E8"/>
</linearGradient>
<linearGradient id="paint1_linear_5_192" x1="407.554" y1="1.00183" x2="420.622" y2="87.6472" gradientUnits="userSpaceOnUse">
<stop stop-color="#0086D1"/>
<stop offset="1" stop-color="#27D1E8"/>
</linearGradient>
<linearGradient id="paint2_linear_5_192" x1="412.193" y1="32.7019" x2="430.785" y2="124.854" gradientUnits="userSpaceOnUse">
<stop stop-color="#0086D1"/>
<stop offset="1" stop-color="#27D1E8"/>
</linearGradient>
</defs>
</svg>
