<svg width="22" height="22" viewBox="0 0 22 22" fill="none" xmlns="http://www.w3.org/2000/svg">
<mask id="mask0_391_83" style="mask-type:luminance" maskUnits="userSpaceOnUse" x="0" y="0" width="22" height="22">
<path d="M0.314209 0.432129H21.2043V21.3223H0.314209V0.432129Z" fill="white"/>
</mask>
<g mask="url(#mask0_391_83)">
<path fill-rule="evenodd" clip-rule="evenodd" d="M16.3184 4.66605C16.9876 5.33528 18.0726 5.33528 18.7419 4.66605C19.4111 3.99682 19.4111 2.91181 18.7419 2.24258C18.0726 1.57335 16.9876 1.57335 16.3184 2.24258C15.6492 2.91181 15.6492 3.99682 16.3184 4.66605ZM18.1648 4.08903C17.8143 4.43959 17.246 4.43959 16.8954 4.08903C16.5449 3.73848 16.5449 3.17015 16.8954 2.8196C17.246 2.46904 17.8143 2.46904 18.1648 2.8196C18.5154 3.17015 18.5154 3.73848 18.1648 4.08903Z" fill="white"/>
<path fill-rule="evenodd" clip-rule="evenodd" d="M2.77673 19.5118C3.44596 20.181 4.53097 20.181 5.2002 19.5118C5.86943 18.8425 5.86943 17.7575 5.2002 17.0883C4.53097 16.4191 3.44596 16.4191 2.77673 17.0883C2.1075 17.7575 2.1075 18.8425 2.77673 19.5118ZM4.62318 18.9347C4.27263 19.2853 3.7043 19.2853 3.35375 18.9347C3.00319 18.5842 3.00319 18.0159 3.35375 17.6653C3.7043 17.3147 4.27263 17.3147 4.62318 17.6653C4.97374 18.0159 4.97374 18.5842 4.62318 18.9347Z" fill="white"/>
<path fill-rule="evenodd" clip-rule="evenodd" d="M10.7593 20.5062C10.1088 20.5062 9.47368 20.4418 8.85995 20.319C8.63899 20.2748 8.42404 20.4181 8.37984 20.6391C8.33565 20.86 8.47895 21.075 8.69991 21.1192C9.36603 21.2524 10.0547 21.3223 10.7593 21.3223C16.528 21.3223 21.2044 16.6458 21.2044 10.8772C21.2044 8.3593 20.3128 6.04867 18.8287 4.245C18.6856 4.07099 18.4284 4.046 18.2544 4.18917C18.0804 4.33234 18.0554 4.58947 18.1986 4.76348C19.5669 6.42651 20.3884 8.55535 20.3884 10.8772C20.3884 16.1952 16.0773 20.5062 10.7593 20.5062Z" fill="white"/>
<path fill-rule="evenodd" clip-rule="evenodd" d="M3.26415 17.5652C3.43816 17.4221 3.46316 17.165 3.31998 16.9909C1.95164 15.3279 1.13023 13.1991 1.13023 10.8772C1.13023 5.55925 5.4413 1.24817 10.7593 1.24817C11.4163 1.24817 12.0575 1.31394 12.6769 1.43908C12.8978 1.4837 13.113 1.34082 13.1576 1.11995C13.2023 0.899073 13.0594 0.683842 12.8385 0.639217C12.1662 0.503395 11.4709 0.432148 10.7593 0.432148C4.99063 0.432148 0.314209 5.10857 0.314209 10.8772C0.314209 13.3951 1.20579 15.7057 2.68985 17.5094C2.83302 17.6834 3.09015 17.7084 3.26415 17.5652Z" fill="white"/>
<path fill-rule="evenodd" clip-rule="evenodd" d="M9.07571 17.8947C9.07571 18.1201 9.25838 18.3027 9.48372 18.3027H12.0349C12.2603 18.3027 12.4429 18.1201 12.4429 17.8947V17.1037C12.9849 16.9576 13.4987 16.7428 13.9742 16.4691L14.5326 17.0276C14.6092 17.1041 14.713 17.1471 14.8212 17.1471C14.9295 17.1471 15.0333 17.104 15.1098 17.0275L16.913 15.2228C17.0723 15.0635 17.0722 14.8052 16.9129 14.6459L16.3551 14.0881C16.6288 13.6126 16.8436 13.0989 16.9897 12.5569H17.7778C18.0031 12.5569 18.1858 12.3742 18.1858 12.1489V9.59771C18.1858 9.37237 18.0031 9.1897 17.7778 9.1897H16.9896C16.8436 8.64771 16.6288 8.13395 16.3551 7.65848L16.9099 7.10362C16.9865 7.02708 17.0294 6.92327 17.0294 6.81504C17.0294 6.7068 16.9864 6.60301 16.9098 6.52651L15.1052 4.72322C14.9459 4.56398 14.6876 4.56403 14.5283 4.72333L13.9741 5.27753C13.4987 5.00387 12.9849 4.78909 12.4429 4.64302V3.85916C12.4429 3.63383 12.2603 3.45115 12.0349 3.45115H9.48372C9.25838 3.45115 9.07571 3.63383 9.07571 3.85916V4.64302C8.53373 4.78909 8.02 5.00387 7.54454 5.27753L6.99033 4.72333C6.83103 4.56403 6.57278 4.56398 6.41342 4.72322L4.60883 6.52651C4.53227 6.60301 4.48924 6.7068 4.48922 6.81504C4.4892 6.92327 4.53219 7.02708 4.60872 7.10362L5.16355 7.65848C4.88988 8.13395 4.6751 8.64771 4.529 9.1897H3.74224C3.51699 9.1897 3.33435 9.37224 3.33423 9.59749L3.33284 12.1487C3.33278 12.2569 3.37574 12.3607 3.45227 12.4373C3.52879 12.5139 3.6326 12.5569 3.74085 12.5569H4.52896C4.67506 13.0989 4.88984 13.6126 5.16351 14.0881L4.60571 14.6459C4.44641 14.8052 4.44636 15.0635 4.6056 15.2228L6.40888 17.0275C6.48539 17.104 6.58919 17.1471 6.69743 17.1471C6.80567 17.1471 6.90948 17.1041 6.98601 17.0276L7.54446 16.4691C8.01996 16.7428 8.53372 16.9576 9.07571 17.1037V17.8947ZM9.89173 17.4867V16.7828C9.89173 16.5905 9.75745 16.4243 9.56943 16.3839C8.89512 16.239 8.26554 15.9737 7.70434 15.611C7.54283 15.5066 7.33035 15.5292 7.19436 15.6652L6.6976 16.1619L5.47112 14.9346L5.96745 14.4382C6.10343 14.3022 6.126 14.0898 6.02163 13.9283C5.65897 13.3671 5.39366 12.7375 5.24877 12.0632C5.20837 11.8751 5.04217 11.7409 4.84986 11.7409H4.14908L4.15003 10.0057H4.8499C5.04221 10.0057 5.20841 9.87144 5.24881 9.68342C5.3937 9.00911 5.65901 8.37952 6.02166 7.81837C6.12604 7.65686 6.10347 7.44439 5.9675 7.30841L5.47434 6.81523L6.70172 5.58874L7.19445 6.08148C7.33043 6.21746 7.54291 6.24003 7.70442 6.13565C8.26558 5.77299 8.89512 5.50769 9.56941 5.36284C9.75744 5.32245 9.89173 5.15625 9.89173 4.96393V4.26717H11.6269V4.96393C11.6269 5.15625 11.7612 5.32245 11.9492 5.36284C12.6235 5.50769 13.2531 5.77299 13.8142 6.13565C13.9757 6.24003 14.1882 6.21746 14.3242 6.08148L14.8169 5.58874L16.0443 6.81523L15.5512 7.30841C15.4152 7.44439 15.3926 7.65686 15.497 7.81837C15.8596 8.37952 16.125 9.00911 16.2698 9.68342C16.3102 9.87144 16.4764 10.0057 16.6687 10.0057H17.3698V11.7409H16.6688C16.4765 11.7409 16.3103 11.8751 16.2699 12.0632C16.125 12.7375 15.8597 13.3671 15.497 13.9283C15.3927 14.0898 15.4152 14.3022 15.5512 14.4382L16.0475 14.9346L14.8211 16.1619L14.3243 15.6652C14.1883 15.5292 13.9758 15.5066 13.8143 15.611C13.2531 15.9737 12.6235 16.239 11.9492 16.3839C11.7612 16.4243 11.6269 16.5905 11.6269 16.7828V17.4867H9.89173ZM7.38793 10.8769C7.38793 12.7389 8.89738 14.2483 10.7593 14.2483C12.6213 14.2483 14.1307 12.7389 14.1307 10.8769C14.1307 9.01499 12.6213 7.50559 10.7593 7.50559C8.89738 7.50559 7.38793 9.01499 7.38793 10.8769ZM10.7593 13.4323C9.34805 13.4323 8.20395 12.2883 8.20395 10.8769C8.20395 9.46568 9.34804 8.32162 10.7593 8.32162C12.1706 8.32162 13.3147 9.46568 13.3147 10.8769C13.3147 12.2883 12.1706 13.4323 10.7593 13.4323Z" fill="white"/>
</g>
</svg>
