<svg width="39" height="39" viewBox="0 0 39 39" fill="none" xmlns="http://www.w3.org/2000/svg">
<path d="M25.9597 22.7347L20.6544 18.7557V10.6505C20.6544 9.83551 19.9956 9.17676 19.1806 9.17676C18.3657 9.17676 17.7069 9.83551 17.7069 10.6505V19.4927C17.7069 19.9569 17.925 20.3946 18.2964 20.6717L24.1911 25.0928C24.4564 25.2917 24.7659 25.3875 25.0739 25.3875C25.5234 25.3875 25.9655 25.1856 26.2544 24.7965C26.7437 24.1465 26.6111 23.2226 25.9597 22.7347Z" fill="#229CE1"/>
<path d="M19.1807 0.349609C8.68942 0.349609 0.155273 8.88376 0.155273 19.375C0.155273 29.8662 8.68942 38.4004 19.1807 38.4004C29.6719 38.4004 38.2061 29.8662 38.2061 19.375C38.2061 8.88376 29.6719 0.349609 19.1807 0.349609ZM19.1807 35.453C10.3164 35.453 3.10265 28.2393 3.10265 19.375C3.10265 10.5107 10.3164 3.29698 19.1807 3.29698C28.0464 3.29698 35.2587 10.5107 35.2587 19.375C35.2587 28.2393 28.0449 35.453 19.1807 35.453Z" fill="#229CE1"/>
</svg>
