<svg width="108" height="108" viewBox="0 0 108 108" fill="none" xmlns="http://www.w3.org/2000/svg">
<path d="M53.9293 0.0839844C43.3455 0.0839844 32.9994 3.22244 24.1993 9.10249C15.3991 14.9825 8.5403 23.3401 4.49006 33.1182C0.439812 42.8964 -0.619916 53.656 1.44488 64.0364C3.50968 74.4168 8.60626 83.9519 16.0901 91.4357C23.574 98.9196 33.109 104.016 43.4895 106.081C53.8699 108.146 64.6295 107.086 74.4077 103.036C84.1858 98.9856 92.5434 92.1267 98.4234 83.3266C104.303 74.5265 107.442 64.1804 107.442 53.5966C107.425 39.4093 101.782 25.8079 91.7499 15.776C81.718 5.74402 68.1166 0.100722 53.9293 0.0839844ZM53.9293 97.3797C45.2698 97.3797 36.8048 94.8118 29.6047 90.0009C22.4046 85.1899 16.7928 78.352 13.479 70.3517C10.1652 62.3513 9.29812 53.548 10.9875 45.055C12.6769 36.5619 16.8468 28.7605 22.97 22.6373C29.0931 16.5141 36.8945 12.3442 45.3876 10.6548C53.8807 8.96545 62.684 9.8325 70.6843 13.1463C78.6846 16.4602 85.5226 22.072 90.3336 29.272C95.1445 36.4721 97.7123 44.9371 97.7123 53.5966C97.6995 65.2046 93.0825 76.3336 84.8744 84.5417C76.6662 92.7498 65.5373 97.3668 53.9293 97.3797Z" fill="url(#paint0_linear_391_372)"/>
<path d="M53.9292 19.543C52.639 19.543 51.4016 20.0555 50.4893 20.9678C49.577 21.8802 49.0645 23.1175 49.0645 24.4078V63.326C49.0645 64.6162 49.577 65.8536 50.4893 66.7659C51.4016 67.6783 52.639 68.1908 53.9292 68.1908C55.2195 68.1908 56.4568 67.6783 57.3692 66.7659C58.2815 65.8536 58.794 64.6162 58.794 63.326V24.4078C58.794 23.1175 58.2815 21.8802 57.3692 20.9678C56.4568 20.0555 55.2195 19.543 53.9292 19.543Z" fill="url(#paint1_linear_391_372)"/>
<path d="M53.9292 82.7862C56.616 82.7862 58.794 80.6082 58.794 77.9214C58.794 75.2347 56.616 73.0566 53.9292 73.0566C51.2425 73.0566 49.0645 75.2347 49.0645 77.9214C49.0645 80.6082 51.2425 82.7862 53.9292 82.7862Z" fill="url(#paint2_linear_391_372)"/>
<defs>
<linearGradient id="paint0_linear_391_372" x1="-23.0511" y1="123.314" x2="99.1328" y2="12.6594" gradientUnits="userSpaceOnUse">
<stop stop-color="#FFF33B"/>
<stop offset="0.04" stop-color="#FEE72E"/>
<stop offset="0.117" stop-color="#FED51B"/>
<stop offset="0.196" stop-color="#FDCA10"/>
<stop offset="0.281" stop-color="#FDC70C"/>
<stop offset="0.669" stop-color="#F3903F"/>
<stop offset="0.888" stop-color="#ED683C"/>
<stop offset="1" stop-color="#E93E3A"/>
</linearGradient>
<linearGradient id="paint1_linear_391_372" x1="-27.8916" y1="117.967" x2="94.2923" y2="7.3129" gradientUnits="userSpaceOnUse">
<stop stop-color="#FFF33B"/>
<stop offset="0.04" stop-color="#FEE72E"/>
<stop offset="0.117" stop-color="#FED51B"/>
<stop offset="0.196" stop-color="#FDCA10"/>
<stop offset="0.281" stop-color="#FDC70C"/>
<stop offset="0.669" stop-color="#F3903F"/>
<stop offset="0.888" stop-color="#ED683C"/>
<stop offset="1" stop-color="#E93E3A"/>
</linearGradient>
<linearGradient id="paint2_linear_391_372" x1="-10.9475" y1="136.678" x2="111.232" y2="26.0239" gradientUnits="userSpaceOnUse">
<stop stop-color="#FFF33B"/>
<stop offset="0.04" stop-color="#FEE72E"/>
<stop offset="0.117" stop-color="#FED51B"/>
<stop offset="0.196" stop-color="#FDCA10"/>
<stop offset="0.281" stop-color="#FDC70C"/>
<stop offset="0.669" stop-color="#F3903F"/>
<stop offset="0.888" stop-color="#ED683C"/>
<stop offset="1" stop-color="#E93E3A"/>
</linearGradient>
</defs>
</svg>
