<svg width="10" height="41" viewBox="0 0 10 41" fill="none" xmlns="http://www.w3.org/2000/svg">
<path d="M9.5 36C9.5 38.4853 7.48528 40.5 5 40.5L0.5 40.5L0.500004 0.499999L5 0.5C7.48528 0.5 9.5 2.51472 9.5 5L9.5 36Z" fill="#E4F5FF" stroke="#229CE1"/>
<circle cx="6.64974" cy="26.3779" r="1.35026" transform="rotate(-180 6.64974 26.3779)" fill="#CCE4F0"/>
<circle cx="6.64974" cy="22.7771" r="1.35026" transform="rotate(-180 6.64974 22.7771)" fill="#CCE4F0"/>
<circle cx="6.64974" cy="19.1765" r="1.35026" transform="rotate(-180 6.64974 19.1765)" fill="#CCE4F0"/>
<circle cx="6.64974" cy="15.5758" r="1.35026" transform="rotate(-180 6.64974 15.5758)" fill="#CCE4F0"/>
<circle cx="3.34896" cy="26.3779" r="1.35026" transform="rotate(-180 3.34896 26.3779)" fill="#CCE4F0"/>
<circle cx="3.34896" cy="22.7771" r="1.35026" transform="rotate(-180 3.34896 22.7771)" fill="#CCE4F0"/>
<circle cx="3.34896" cy="19.1765" r="1.35026" transform="rotate(-180 3.34896 19.1765)" fill="#CCE4F0"/>
<circle cx="3.34896" cy="15.5758" r="1.35026" transform="rotate(-180 3.34896 15.5758)" fill="#CCE4F0"/>
</svg>
