<svg width="26" height="19" viewBox="0 0 26 19" fill="none" xmlns="http://www.w3.org/2000/svg">
<path d="M0.979308 9.6363L8.39534 17.8763C8.55355 18.051 8.77438 18.1499 9.00839 18.1499L13.9524 18.1499C14.2771 18.1499 14.5721 17.9587 14.7056 17.6621C14.8374 17.3638 14.783 17.0161 14.5655 16.7755L7.64549 9.08587L14.5655 1.39792C14.783 1.15566 14.839 0.807932 14.7056 0.511291C14.5721 0.213001 14.2771 0.0218334 13.9524 0.0218333L9.0084 0.0218329C8.77438 0.0218329 8.55355 0.12236 8.39534 0.293754L0.979308 8.53378C0.697499 8.84691 0.697499 9.32483 0.979308 9.6363Z" fill="#876AFF"/>
<path d="M11.6912 9.6363L19.1073 17.8763C19.2655 18.051 19.4863 18.1499 19.7203 18.1499L24.6643 18.1499C24.989 18.1499 25.284 17.9587 25.4175 17.6621C25.5493 17.3638 25.4949 17.0161 25.2774 16.7755L18.3574 9.08587L25.2774 1.39792C25.4949 1.15566 25.551 0.807932 25.4175 0.511291C25.284 0.213001 24.989 0.0218334 24.6643 0.0218333L19.7203 0.0218329C19.4863 0.0218329 19.2655 0.12236 19.1073 0.293754L11.6912 8.53378C11.4094 8.84691 11.4094 9.32483 11.6912 9.6363Z" fill="#876AFF"/>
</svg>
