<svg width="23" height="22" viewBox="0 0 23 22" fill="none" xmlns="http://www.w3.org/2000/svg">
<path d="M17.2511 14.0119C16.6666 14.0119 16.1942 14.4844 16.1942 15.0688V18.3888C16.1942 18.9722 15.7207 19.4457 15.1373 19.4457H3.51069C2.92724 19.4457 2.45376 18.9722 2.45376 18.3888V4.64834C2.45376 4.06489 2.92728 3.59141 3.51069 3.59141H9.6516C10.2361 3.59141 10.7085 3.11895 10.7085 2.53447C10.7085 1.95 10.2361 1.47754 9.6516 1.47754H3.51069C1.76249 1.47745 0.339844 2.90014 0.339844 4.64834V18.3888C0.339844 20.137 1.76249 21.5596 3.51069 21.5596H15.1372C16.8854 21.5596 18.308 20.138 18.308 18.3888V15.0689C18.3081 14.4844 17.8356 14.0119 17.2511 14.0119Z" fill="#229CE1"/>
<path d="M20.9155 1.34331C20.1481 0.57598 19.1461 0.189105 18.1367 0.167985C17.0745 0.144741 16.0059 0.529448 15.2026 1.33379L8.04701 8.4894C7.00273 9.53792 6.42773 10.9289 6.42773 12.4065V14.774C6.42773 15.3585 6.90019 15.831 7.48467 15.831H9.85223C11.3299 15.831 12.7208 15.256 13.7704 14.2106L20.9164 7.06454C22.4913 5.4887 22.4913 2.9203 20.9155 1.34331ZM12.277 12.7151C11.629 13.3609 10.7666 13.7171 9.85232 13.7171H8.54165V12.4065C8.54165 11.4922 8.89784 10.6297 9.54257 9.98288L14.2598 5.26568L16.993 7.99896L12.277 12.7151ZM19.4209 5.57114L18.4876 6.50445L15.7543 3.77118L16.6876 2.8379C17.4423 2.08323 18.6683 2.08536 19.4209 2.8379C20.1735 3.59147 20.1735 4.81753 19.4209 5.57114Z" fill="#229CE1"/>
</svg>
