<svg width="19" height="13" viewBox="0 0 19 13" fill="none" xmlns="http://www.w3.org/2000/svg">
<path d="M16.9766 0.180664H2.14062C1.26654 0.180664 0.558594 0.893 0.558594 1.7627V11.2549C0.558594 12.1297 1.27174 12.8369 2.14062 12.8369H16.9766C17.8433 12.8369 18.5586 12.1327 18.5586 11.2549V1.7627C18.5586 0.894547 17.8535 0.180664 16.9766 0.180664ZM16.755 1.23535C16.4318 1.55686 10.8693 7.09003 10.6773 7.28107C10.3784 7.5799 9.98117 7.74443 9.55859 7.74443C9.13602 7.74443 8.73875 7.57986 8.43894 7.28008C8.30977 7.15159 2.8087 1.67952 2.36218 1.23535H16.755ZM1.61328 11.0402V1.97803L6.17087 6.5116L1.61328 11.0402ZM2.36285 11.7822L6.91864 7.2554L7.69415 8.02684C8.19218 8.52486 8.85431 8.79911 9.55859 8.79911C10.2629 8.79911 10.925 8.52486 11.4221 8.02782L12.1985 7.2554L16.7543 11.7822H2.36285ZM17.5039 11.0402L12.9463 6.5116L17.5039 1.97803V11.0402Z" fill="#0E5F8C"/>
</svg>
