<svg width="19" height="19" viewBox="0 0 19 19" fill="none" xmlns="http://www.w3.org/2000/svg">
<path d="M15.7112 11.2114C15.3184 10.8024 14.8445 10.5836 14.3422 10.5836C13.844 10.5836 13.3661 10.7983 12.957 11.2074L11.6771 12.4832C11.5718 12.4265 11.4665 12.3739 11.3653 12.3212C11.2194 12.2483 11.0817 12.1795 10.9643 12.1066C9.76539 11.3451 8.67586 10.3528 7.63088 9.06883C7.1246 8.42889 6.78437 7.8902 6.5373 7.3434C6.86943 7.03963 7.17725 6.72371 7.47697 6.41994C7.59038 6.30653 7.70379 6.18907 7.8172 6.07566C8.66776 5.2251 8.66776 4.12342 7.8172 3.27285L6.71146 2.16712C6.58591 2.04156 6.4563 1.91195 6.33479 1.78234C6.09177 1.53123 5.8366 1.27201 5.57333 1.02899C5.18045 0.640159 4.71062 0.433594 4.21648 0.433594C3.72234 0.433594 3.24441 0.640159 2.83938 1.02899C2.83533 1.03304 2.83533 1.03304 2.83128 1.03709L1.45418 2.42634C0.935737 2.94478 0.640065 3.57663 0.57526 4.30973C0.478053 5.49242 0.826379 6.5941 1.0937 7.31505C1.74985 9.08503 2.73002 10.7254 4.19218 12.4832C5.96621 14.6015 8.10072 16.2743 10.539 17.453C11.4706 17.8944 12.714 18.4169 14.1033 18.506C14.1883 18.5101 14.2774 18.5141 14.3584 18.5141C15.2941 18.5141 16.0798 18.178 16.6955 17.5097C16.6995 17.5016 16.7076 17.4975 16.7117 17.4894C16.9223 17.2342 17.1653 17.0034 17.4205 16.7563C17.5946 16.5902 17.7728 16.4161 17.947 16.2338C18.348 15.8166 18.5586 15.3306 18.5586 14.8324C18.5586 14.3302 18.3439 13.8482 17.9348 13.4432L15.7112 11.2114ZM17.1612 15.4764C17.1572 15.4764 17.1572 15.4805 17.1612 15.4764C17.0033 15.6465 16.8413 15.8004 16.6671 15.9705C16.4038 16.2217 16.1365 16.4849 15.8854 16.7806C15.4763 17.218 14.9943 17.4246 14.3625 17.4246C14.3017 17.4246 14.2369 17.4246 14.1762 17.4206C12.9732 17.3436 11.8553 16.8738 11.0169 16.4728C8.72446 15.363 6.71147 13.7874 5.03869 11.7906C3.65754 10.126 2.73407 8.58685 2.12247 6.93433C1.7458 5.9258 1.60809 5.14004 1.66884 4.39884C1.70934 3.92495 1.89161 3.53207 2.22778 3.1959L3.60894 1.81475C3.8074 1.62843 4.01802 1.52717 4.22458 1.52717C4.47975 1.52717 4.68632 1.68109 4.81592 1.8107C4.81997 1.81475 4.82403 1.8188 4.82808 1.82285C5.07514 2.05371 5.31006 2.29268 5.55713 2.54785C5.68269 2.67746 5.8123 2.80707 5.94191 2.94073L7.04764 4.04646C7.47697 4.47579 7.47697 4.87272 7.04764 5.30205C6.93018 5.41951 6.81677 5.53697 6.69931 5.65038C6.35909 5.99871 6.03507 6.32273 5.68269 6.63865C5.67459 6.64675 5.66649 6.6508 5.66244 6.6589C5.31411 7.00723 5.37892 7.34746 5.45182 7.57832C5.45587 7.59047 5.45992 7.60262 5.46397 7.61478C5.75154 8.31143 6.15657 8.96758 6.77222 9.74928L6.77627 9.75333C7.89415 11.1304 9.07279 12.2038 10.3729 13.026C10.539 13.1313 10.7091 13.2163 10.8711 13.2973C11.0169 13.3703 11.1546 13.4391 11.2721 13.512C11.2883 13.5201 11.3045 13.5323 11.3207 13.5404C11.4584 13.6092 11.588 13.6416 11.7217 13.6416C12.0579 13.6416 12.2685 13.431 12.3373 13.3622L13.7225 11.9769C13.8602 11.8392 14.079 11.6732 14.3341 11.6732C14.5852 11.6732 14.7918 11.8311 14.9174 11.9688C14.9214 11.9729 14.9214 11.9729 14.9255 11.9769L17.1572 14.2087C17.5744 14.6218 17.5744 15.0471 17.1612 15.4764Z" fill="#0E5F8C"/>
</svg>
