<svg width="280" height="359" viewBox="0 0 280 359" fill="none" xmlns="http://www.w3.org/2000/svg">
<rect x="0.5" y="0.5" width="279" height="358" fill="white" stroke="black"/>
<rect x="22.5" y="80.5" width="235" height="266" rx="28.5" fill="white" stroke="black"/>
<path d="M35.328 31.44V21.824H29.968L29.872 24.544C29.84 25.3867 29.7867 26.1973 29.712 26.976C29.648 27.744 29.5413 28.4373 29.392 29.056C29.2533 29.664 29.0613 30.16 28.816 30.544C28.5813 30.928 28.272 31.152 27.888 31.216L26.592 30.976C27.0187 30.9973 27.3707 30.8427 27.648 30.512C27.936 30.1813 28.1547 29.7173 28.304 29.12C28.464 28.5227 28.5813 27.824 28.656 27.024C28.7307 26.224 28.784 25.36 28.816 24.432L28.944 20.8H36.496V31.44H35.328ZM26.176 34.512L26.192 30.976H38.176V34.512H37.072V32H27.296L27.28 34.512H26.176ZM45.5351 32V30.144L45.4871 29.84V26.736C45.4871 26.0213 45.2845 25.472 44.8791 25.088C44.4845 24.704 43.8925 24.512 43.1031 24.512C42.5591 24.512 42.0418 24.6027 41.5511 24.784C41.0605 24.9653 40.6445 25.2053 40.3031 25.504L39.7911 24.656C40.2178 24.2933 40.7298 24.016 41.3271 23.824C41.9245 23.6213 42.5538 23.52 43.2151 23.52C44.3031 23.52 45.1405 23.792 45.7271 24.336C46.3245 24.8693 46.6231 25.6853 46.6231 26.784V32H45.5351ZM42.6391 32.08C42.0098 32.08 41.4605 31.9787 40.9911 31.776C40.5325 31.5627 40.1805 31.2747 39.9351 30.912C39.6898 30.5387 39.5671 30.112 39.5671 29.632C39.5671 29.1947 39.6685 28.8 39.8711 28.448C40.0845 28.0853 40.4258 27.7973 40.8951 27.584C41.3751 27.36 42.0151 27.248 42.8151 27.248H45.7111V28.096H42.8471C42.0365 28.096 41.4711 28.24 41.1511 28.528C40.8418 28.816 40.6871 29.1733 40.6871 29.6C40.6871 30.08 40.8738 30.464 41.2471 30.752C41.6205 31.04 42.1431 31.184 42.8151 31.184C43.4551 31.184 44.0045 31.04 44.4631 30.752C44.9325 30.4533 45.2738 30.0267 45.4871 29.472L45.7431 30.256C45.5298 30.8107 45.1565 31.2533 44.6231 31.584C44.1005 31.9147 43.4391 32.08 42.6391 32.08ZM51.2473 32V24.288L51.5353 24.592H48.0633V23.6H55.5673V24.592H52.0953L52.3833 24.288V32H51.2473ZM62.4258 32V30.144L62.3778 29.84V26.736C62.3778 26.0213 62.1751 25.472 61.7698 25.088C61.3751 24.704 60.7831 24.512 59.9938 24.512C59.4498 24.512 58.9324 24.6027 58.4418 24.784C57.9511 24.9653 57.5351 25.2053 57.1938 25.504L56.6818 24.656C57.1084 24.2933 57.6204 24.016 58.2178 23.824C58.8151 23.6213 59.4444 23.52 60.1058 23.52C61.1938 23.52 62.0311 23.792 62.6178 24.336C63.2151 24.8693 63.5138 25.6853 63.5138 26.784V32H62.4258ZM59.5298 32.08C58.9004 32.08 58.3511 31.9787 57.8818 31.776C57.4231 31.5627 57.0711 31.2747 56.8258 30.912C56.5804 30.5387 56.4578 30.112 56.4578 29.632C56.4578 29.1947 56.5591 28.8 56.7618 28.448C56.9751 28.0853 57.3164 27.7973 57.7858 27.584C58.2658 27.36 58.9058 27.248 59.7057 27.248H62.6018V28.096H59.7378C58.9271 28.096 58.3618 28.24 58.0418 28.528C57.7324 28.816 57.5778 29.1733 57.5778 29.6C57.5778 30.08 57.7644 30.464 58.1378 30.752C58.5111 31.04 59.0338 31.184 59.7057 31.184C60.3458 31.184 60.8951 31.04 61.3538 30.752C61.8231 30.4533 62.1644 30.0267 62.3778 29.472L62.6338 30.256C62.4204 30.8107 62.0471 31.2533 61.5138 31.584C60.9911 31.9147 60.3298 32.08 59.5298 32.08ZM70.8694 35.184C70.4747 35.184 70.096 35.12 69.7334 34.992C69.3814 34.864 69.0774 34.672 68.8214 34.416L69.3494 33.568C69.5627 33.7707 69.792 33.9253 70.0374 34.032C70.2934 34.1493 70.576 34.208 70.8854 34.208C71.2587 34.208 71.5787 34.1013 71.8454 33.888C72.1227 33.6853 72.384 33.3227 72.6294 32.8L73.1734 31.568L73.3014 31.392L76.7574 23.6H77.8774L73.6694 33.008C73.4347 33.552 73.1734 33.984 72.8854 34.304C72.608 34.624 72.304 34.848 71.9734 34.976C71.6427 35.1147 71.2747 35.184 70.8694 35.184ZM73.1094 32.24L69.2374 23.6H70.4214L73.8454 31.312L73.1094 32.24ZM82.9329 32.08C82.1009 32.08 81.3542 31.8987 80.6929 31.536C80.0422 31.1627 79.5302 30.656 79.1569 30.016C78.7835 29.3653 78.5969 28.624 78.5969 27.792C78.5969 26.9493 78.7835 26.208 79.1569 25.568C79.5302 24.928 80.0422 24.4267 80.6929 24.064C81.3542 23.7013 82.1009 23.52 82.9329 23.52C83.6475 23.52 84.2929 23.6587 84.8689 23.936C85.4449 24.2133 85.8982 24.6293 86.2289 25.184L85.3809 25.76C85.0929 25.3333 84.7355 25.0187 84.3089 24.816C83.8822 24.6133 83.4182 24.512 82.9169 24.512C82.3195 24.512 81.7809 24.6507 81.3009 24.928C80.8209 25.1947 80.4422 25.5733 80.1649 26.064C79.8875 26.5547 79.7489 27.1307 79.7489 27.792C79.7489 28.4533 79.8875 29.0293 80.1649 29.52C80.4422 30.0107 80.8209 30.3947 81.3009 30.672C81.7809 30.9387 82.3195 31.072 82.9169 31.072C83.4182 31.072 83.8822 30.9707 84.3089 30.768C84.7355 30.5653 85.0929 30.256 85.3809 29.84L86.2289 30.416C85.8982 30.96 85.4449 31.376 84.8689 31.664C84.2929 31.9413 83.6475 32.08 82.9329 32.08ZM89.8723 32V24.288L90.1603 24.592H86.6883V23.6H94.1923V24.592H90.7203L91.0083 24.288V32H89.8723ZM101.051 32V30.144L101.003 29.84V26.736C101.003 26.0213 100.8 25.472 100.395 25.088C100 24.704 99.4081 24.512 98.6188 24.512C98.0748 24.512 97.5574 24.6027 97.0668 24.784C96.5761 24.9653 96.1601 25.2053 95.8188 25.504L95.3068 24.656C95.7334 24.2933 96.2454 24.016 96.8428 23.824C97.4401 23.6213 98.0694 23.52 98.7308 23.52C99.8188 23.52 100.656 23.792 101.243 24.336C101.84 24.8693 102.139 25.6853 102.139 26.784V32H101.051ZM98.1548 32.08C97.5254 32.08 96.9761 31.9787 96.5068 31.776C96.0481 31.5627 95.6961 31.2747 95.4508 30.912C95.2054 30.5387 95.0828 30.112 95.0828 29.632C95.0828 29.1947 95.1841 28.8 95.3868 28.448C95.6001 28.0853 95.9414 27.7973 96.4108 27.584C96.8908 27.36 97.5308 27.248 98.3307 27.248H101.227V28.096H98.3628C97.5521 28.096 96.9868 28.24 96.6668 28.528C96.3574 28.816 96.2028 29.1733 96.2028 29.6C96.2028 30.08 96.3894 30.464 96.7628 30.752C97.1361 31.04 97.6588 31.184 98.3307 31.184C98.9708 31.184 99.5201 31.04 99.9788 30.752C100.448 30.4533 100.789 30.0267 101.003 29.472L101.259 30.256C101.045 30.8107 100.672 31.2533 100.139 31.584C99.6161 31.9147 98.9548 32.08 98.1548 32.08ZM105.163 32V23.6H106.299V27.312H111.595V23.6H112.731V32H111.595V28.288H106.299V32H105.163ZM119.416 32.08C118.605 32.08 117.874 31.8987 117.224 31.536C116.584 31.1627 116.077 30.656 115.704 30.016C115.33 29.3653 115.144 28.624 115.144 27.792C115.144 26.9493 115.33 26.208 115.704 25.568C116.077 24.928 116.584 24.4267 117.224 24.064C117.864 23.7013 118.594 23.52 119.416 23.52C120.248 23.52 120.984 23.7013 121.624 24.064C122.274 24.4267 122.781 24.928 123.144 25.568C123.517 26.208 123.704 26.9493 123.704 27.792C123.704 28.624 123.517 29.3653 123.144 30.016C122.781 30.656 122.274 31.1627 121.624 31.536C120.973 31.8987 120.237 32.08 119.416 32.08ZM119.416 31.072C120.024 31.072 120.562 30.9387 121.032 30.672C121.501 30.3947 121.869 30.0107 122.136 29.52C122.413 29.0187 122.552 28.4427 122.552 27.792C122.552 27.1307 122.413 26.5547 122.136 26.064C121.869 25.5733 121.501 25.1947 121.032 24.928C120.562 24.6507 120.029 24.512 119.432 24.512C118.834 24.512 118.301 24.6507 117.832 24.928C117.362 25.1947 116.989 25.5733 116.712 26.064C116.434 26.5547 116.296 27.1307 116.296 27.792C116.296 28.4427 116.434 29.0187 116.712 29.52C116.989 30.0107 117.362 30.3947 117.832 30.672C118.301 30.9387 118.829 31.072 119.416 31.072ZM126.132 32V23.6H129.844C130.793 23.6 131.54 23.7813 132.084 24.144C132.638 24.5067 132.916 25.04 132.916 25.744C132.916 26.4267 132.654 26.9547 132.132 27.328C131.609 27.6907 130.921 27.872 130.068 27.872L130.292 27.536C131.294 27.536 132.03 27.7227 132.5 28.096C132.969 28.4693 133.204 29.008 133.204 29.712C133.204 30.4373 132.937 31.0027 132.404 31.408C131.881 31.8027 131.065 32 129.956 32H126.132ZM127.236 31.104H129.908C130.622 31.104 131.161 30.992 131.524 30.768C131.897 30.5333 132.084 30.16 132.084 29.648C132.084 29.136 131.918 28.7627 131.588 28.528C131.257 28.2933 130.734 28.176 130.02 28.176H127.236V31.104ZM127.236 27.328H129.764C130.414 27.328 130.91 27.2053 131.252 26.96C131.604 26.7147 131.78 26.3573 131.78 25.888C131.78 25.4187 131.604 25.0667 131.252 24.832C130.91 24.5973 130.414 24.48 129.764 24.48H127.236V27.328ZM142.026 32L138.57 27.84L139.514 27.28L143.37 32H142.026ZM135.866 32V23.6H137.002V32H135.866ZM136.65 28.256V27.28H139.354V28.256H136.65ZM139.61 27.92L138.554 27.76L141.898 23.6H143.13L139.61 27.92ZM145.163 32V23.6H146.299V30.272L151.915 23.6H152.923V32H151.787V25.312L146.187 32H145.163ZM154.562 32.768V32H162.562V32.768H154.562ZM162.562 32.768V32H170.562V32.768H162.562ZM170.562 32.768V32H178.562V32.768H170.562ZM178.562 32.768V32H186.562V32.768H178.562ZM186.562 32.768V32H194.562V32.768H186.562ZM194.562 32.768V32H202.562V32.768H194.562ZM202.562 32.768V32H210.562V32.768H202.562ZM210.562 32.768V32H218.562V32.768H210.562ZM218.562 32.768V32H226.562V32.768H218.562ZM226.562 32.768V32H234.562V32.768H226.562Z" fill="black"/>
<path d="M36.08 50.8H37.248V62H36.08V50.8ZM29.072 62H27.888V50.8H29.072V62ZM36.192 56.832H28.944V55.792H36.192V56.832ZM44.2126 62.08C43.402 62.08 42.6713 61.8987 42.0206 61.536C41.3806 61.1627 40.874 60.656 40.5006 60.016C40.1273 59.3653 39.9406 58.624 39.9406 57.792C39.9406 56.9493 40.1273 56.208 40.5006 55.568C40.874 54.928 41.3806 54.4267 42.0206 54.064C42.6606 53.7013 43.3913 53.52 44.2126 53.52C45.0446 53.52 45.7806 53.7013 46.4206 54.064C47.0713 54.4267 47.578 54.928 47.9406 55.568C48.314 56.208 48.5006 56.9493 48.5006 57.792C48.5006 58.624 48.314 59.3653 47.9406 60.016C47.578 60.656 47.0713 61.1627 46.4206 61.536C45.77 61.8987 45.034 62.08 44.2126 62.08ZM44.2126 61.072C44.8206 61.072 45.3593 60.9387 45.8286 60.672C46.298 60.3947 46.666 60.0107 46.9326 59.52C47.21 59.0187 47.3486 58.4427 47.3486 57.792C47.3486 57.1307 47.21 56.5547 46.9326 56.064C46.666 55.5733 46.298 55.1947 45.8286 54.928C45.3593 54.6507 44.826 54.512 44.2286 54.512C43.6313 54.512 43.098 54.6507 42.6286 54.928C42.1593 55.1947 41.786 55.5733 41.5086 56.064C41.2313 56.5547 41.0926 57.1307 41.0926 57.792C41.0926 58.4427 41.2313 59.0187 41.5086 59.52C41.786 60.0107 42.1593 60.3947 42.6286 60.672C43.098 60.9387 43.626 61.072 44.2126 61.072ZM50.9285 62V53.6H52.0805L55.8885 60.048H55.4085L59.2805 53.6H60.3365V62H59.2965V54.896L59.5045 54.992L55.8885 60.976H55.3765L51.7285 54.928L51.9685 54.88V62H50.9285ZM67.1691 62.08C66.2945 62.08 65.5265 61.8987 64.8651 61.536C64.2038 61.1627 63.6865 60.656 63.3131 60.016C62.9398 59.3653 62.7531 58.624 62.7531 57.792C62.7531 56.96 62.9291 56.224 63.2811 55.584C63.6438 54.944 64.1345 54.4427 64.7531 54.08C65.3825 53.7067 66.0865 53.52 66.8651 53.52C67.6545 53.52 68.3531 53.7013 68.9611 54.064C69.5798 54.416 70.0651 54.9173 70.4171 55.568C70.7691 56.208 70.9451 56.9493 70.9451 57.792C70.9451 57.8453 70.9398 57.904 70.9291 57.968C70.9291 58.0213 70.9291 58.08 70.9291 58.144H63.6171V57.296H70.3211L69.8731 57.632C69.8731 57.024 69.7398 56.4853 69.4731 56.016C69.2171 55.536 68.8651 55.1627 68.4171 54.896C67.9691 54.6293 67.4518 54.496 66.8651 54.496C66.2891 54.496 65.7718 54.6293 65.3131 54.896C64.8545 55.1627 64.4971 55.536 64.2411 56.016C63.9851 56.496 63.8571 57.0453 63.8571 57.664V57.84C63.8571 58.48 63.9958 59.0453 64.2731 59.536C64.5611 60.016 64.9558 60.3947 65.4571 60.672C65.9691 60.9387 66.5505 61.072 67.2011 61.072C67.7131 61.072 68.1878 60.9813 68.6251 60.8C69.0731 60.6187 69.4571 60.3413 69.7771 59.968L70.4171 60.704C70.0438 61.152 69.5745 61.4933 69.0091 61.728C68.4545 61.9627 67.8411 62.08 67.1691 62.08ZM77.7958 62.08C77.0704 62.08 76.4144 61.9147 75.8278 61.584C75.2411 61.2427 74.7718 60.7573 74.4198 60.128C74.0784 59.488 73.9078 58.7093 73.9078 57.792C73.9078 56.8747 74.0784 56.1013 74.4198 55.472C74.7611 54.832 75.2251 54.3467 75.8118 54.016C76.3984 53.6853 77.0598 53.52 77.7958 53.52C78.5958 53.52 79.3104 53.7013 79.9398 54.064C80.5798 54.416 81.0811 54.9173 81.4438 55.568C81.8064 56.208 81.9878 56.9493 81.9878 57.792C81.9878 58.6453 81.8064 59.392 81.4438 60.032C81.0811 60.672 80.5798 61.1733 79.9398 61.536C79.3104 61.8987 78.5958 62.08 77.7958 62.08ZM73.4598 65.104V53.6H74.5478V56.128L74.4358 57.808L74.5958 59.504V65.104H73.4598ZM77.7158 61.072C78.3131 61.072 78.8464 60.9387 79.3158 60.672C79.7851 60.3947 80.1584 60.0107 80.4358 59.52C80.7131 59.0187 80.8518 58.4427 80.8518 57.792C80.8518 57.1413 80.7131 56.5707 80.4358 56.08C80.1584 55.5893 79.7851 55.2053 79.3158 54.928C78.8464 54.6507 78.3131 54.512 77.7158 54.512C77.1184 54.512 76.5798 54.6507 76.0998 54.928C75.6304 55.2053 75.2571 55.5893 74.9798 56.08C74.7131 56.5707 74.5798 57.1413 74.5798 57.792C74.5798 58.4427 74.7131 59.0187 74.9798 59.52C75.2571 60.0107 75.6304 60.3947 76.0998 60.672C76.5798 60.9387 77.1184 61.072 77.7158 61.072ZM90.872 62.096C90.264 62.096 89.6613 62.0107 89.064 61.84C88.4667 61.6693 87.9387 61.408 87.48 61.056L87.848 60.208C88.2533 60.5067 88.7227 60.736 89.256 60.896C89.7893 61.0453 90.3173 61.12 90.84 61.12C91.3627 61.1093 91.816 61.0347 92.2 60.896C92.584 60.7573 92.8827 60.5653 93.096 60.32C93.3093 60.0747 93.416 59.7973 93.416 59.488C93.416 59.04 93.2133 58.6933 92.808 58.448C92.4027 58.192 91.848 58.064 91.144 58.064H89.704V57.232H91.064C91.48 57.232 91.848 57.1787 92.168 57.072C92.488 56.9653 92.7333 56.8107 92.904 56.608C93.0853 56.4053 93.176 56.1653 93.176 55.888C93.176 55.5893 93.0693 55.3333 92.856 55.12C92.6533 54.9067 92.3707 54.7467 92.008 54.64C91.6453 54.5333 91.2347 54.48 90.776 54.48C90.36 54.4907 89.928 54.5547 89.48 54.672C89.032 54.7787 88.5893 54.944 88.152 55.168L87.832 54.288C88.3227 54.032 88.808 53.84 89.288 53.712C89.7787 53.5733 90.2693 53.504 90.76 53.504C91.432 53.4827 92.0347 53.5627 92.568 53.744C93.112 53.9253 93.544 54.1867 93.864 54.528C94.184 54.8587 94.344 55.2587 94.344 55.728C94.344 56.144 94.216 56.5067 93.96 56.816C93.704 57.1253 93.3627 57.3653 92.936 57.536C92.5093 57.7067 92.024 57.792 91.48 57.792L91.528 57.488C92.488 57.488 93.2347 57.6747 93.768 58.048C94.312 58.4213 94.584 58.928 94.584 59.568C94.584 60.0693 94.4187 60.512 94.088 60.896C93.7573 61.2693 93.3093 61.5627 92.744 61.776C92.1893 61.9893 91.5653 62.096 90.872 62.096ZM97.3069 65.184C96.9122 65.184 96.5335 65.12 96.1709 64.992C95.8189 64.864 95.5149 64.672 95.2589 64.416L95.7869 63.568C96.0002 63.7707 96.2295 63.9253 96.4749 64.032C96.7309 64.1493 97.0135 64.208 97.3229 64.208C97.6962 64.208 98.0162 64.1013 98.2829 63.888C98.5602 63.6853 98.8215 63.3227 99.0669 62.8L99.6109 61.568L99.7389 61.392L103.195 53.6H104.315L100.107 63.008C99.8722 63.552 99.6109 63.984 99.3229 64.304C99.0455 64.624 98.7415 64.848 98.4109 64.976C98.0802 65.1147 97.7122 65.184 97.3069 65.184ZM99.5469 62.24L95.6749 53.6H96.8589L100.283 61.312L99.5469 62.24ZM109.736 62.096C109.053 62.096 108.445 61.984 107.912 61.76C107.389 61.536 106.941 61.1947 106.568 60.736C106.194 60.2773 105.912 59.712 105.72 59.04C105.528 58.3573 105.432 57.568 105.432 56.672C105.432 55.872 105.506 55.1733 105.656 54.576C105.805 53.968 106.013 53.4453 106.28 53.008C106.546 52.5707 106.856 52.2027 107.208 51.904C107.57 51.5947 107.96 51.3493 108.376 51.168C108.802 50.976 109.24 50.832 109.688 50.736L113.464 49.856L113.656 50.912L110.104 51.712C109.88 51.7653 109.608 51.84 109.288 51.936C108.978 52.032 108.658 52.176 108.328 52.368C108.008 52.56 107.709 52.8267 107.432 53.168C107.154 53.5093 106.93 53.952 106.76 54.496C106.6 55.0293 106.52 55.696 106.52 56.496C106.52 56.6667 106.525 56.8053 106.536 56.912C106.546 57.008 106.557 57.1147 106.568 57.232C106.589 57.3387 106.605 57.4987 106.616 57.712L106.12 57.296C106.237 56.6453 106.477 56.08 106.84 55.6C107.202 55.1093 107.656 54.7307 108.2 54.464C108.754 54.1867 109.368 54.048 110.04 54.048C110.818 54.048 111.512 54.2187 112.12 54.56C112.728 54.8907 113.202 55.3547 113.544 55.952C113.896 56.5493 114.072 57.2427 114.072 58.032C114.072 58.8107 113.89 59.5093 113.528 60.128C113.176 60.7467 112.674 61.232 112.024 61.584C111.373 61.9253 110.61 62.096 109.736 62.096ZM109.864 61.152C110.461 61.152 110.989 61.0187 111.448 60.752C111.906 60.4747 112.264 60.1013 112.52 59.632C112.786 59.1627 112.92 58.6347 112.92 58.048C112.92 57.472 112.786 56.96 112.52 56.512C112.264 56.064 111.906 55.712 111.448 55.456C110.989 55.1893 110.456 55.056 109.848 55.056C109.25 55.056 108.722 55.184 108.264 55.44C107.805 55.6853 107.442 56.032 107.176 56.48C106.92 56.928 106.792 57.4453 106.792 58.032C106.792 58.6187 106.92 59.1467 107.176 59.616C107.442 60.0853 107.805 60.4587 108.264 60.736C108.733 61.0133 109.266 61.152 109.864 61.152ZM121.676 62V60.144L121.628 59.84V56.736C121.628 56.0213 121.425 55.472 121.02 55.088C120.625 54.704 120.033 54.512 119.244 54.512C118.7 54.512 118.182 54.6027 117.692 54.784C117.201 54.9653 116.785 55.2053 116.444 55.504L115.932 54.656C116.358 54.2933 116.87 54.016 117.468 53.824C118.065 53.6213 118.694 53.52 119.356 53.52C120.444 53.52 121.281 53.792 121.868 54.336C122.465 54.8693 122.764 55.6853 122.764 56.784V62H121.676ZM118.78 62.08C118.15 62.08 117.601 61.9787 117.132 61.776C116.673 61.5627 116.321 61.2747 116.076 60.912C115.83 60.5387 115.708 60.112 115.708 59.632C115.708 59.1947 115.809 58.8 116.012 58.448C116.225 58.0853 116.566 57.7973 117.036 57.584C117.516 57.36 118.156 57.248 118.956 57.248H121.852V58.096H118.988C118.177 58.096 117.612 58.24 117.292 58.528C116.982 58.816 116.828 59.1733 116.828 59.6C116.828 60.08 117.014 60.464 117.388 60.752C117.761 61.04 118.284 61.184 118.956 61.184C119.596 61.184 120.145 61.04 120.604 60.752C121.073 60.4533 121.414 60.0267 121.628 59.472L121.884 60.256C121.67 60.8107 121.297 61.2533 120.764 61.584C120.241 61.9147 119.58 62.08 118.78 62.08ZM124.172 62.768V62H132.172V62.768H124.172ZM132.172 62.768V62H140.172V62.768H132.172ZM140.172 62.768V62H148.172V62.768H140.172ZM148.172 62.768V62H156.172V62.768H148.172ZM156.172 62.768V62H164.172V62.768H156.172ZM164.172 62.768V62H172.172V62.768H164.172ZM172.172 62.768V62H180.172V62.768H172.172ZM180.172 62.768V62H188.172V62.768H180.172ZM188.172 62.768V62H196.172V62.768H188.172ZM196.172 62.768V62H204.172V62.768H196.172Z" fill="black"/>
<path opacity="0.1" d="M62.8809 197.818V180.917H78.2857V197.818H74.3983V183.21L75.2917 184.104H65.8749L66.7683 183.21V197.818H62.8809ZM82.4755 197.818V180.917H89.7916C91.3047 180.917 92.6086 181.166 93.7031 181.665C94.7977 182.148 95.6428 182.848 96.2384 183.766C96.834 184.683 97.1318 185.778 97.1318 187.049C97.1318 188.305 96.834 189.392 96.2384 190.309C95.6428 191.227 94.7977 191.935 93.7031 192.434C92.6086 192.917 91.3047 193.158 89.7916 193.158H84.6486L86.3871 191.396V197.818H82.4755ZM86.3871 191.83L84.6486 189.971H89.5743C90.7815 189.971 91.683 189.714 92.2786 189.198C92.8742 188.683 93.1719 187.967 93.1719 187.049C93.1719 186.116 92.8742 185.391 92.2786 184.876C91.683 184.361 90.7815 184.104 89.5743 184.104H84.6486L86.3871 182.245V191.83ZM99.7122 197.818V180.917H103.6V191.927L111.664 180.917H115.334V197.818H111.471V186.832L103.406 197.818H99.7122ZM130.48 197.818L125.217 189.681L128.38 187.774L134.923 197.818H130.48ZM119.494 197.818V180.917H123.382V197.818H119.494ZM122.247 191.009V187.75H128.138V191.009H122.247ZM128.742 189.802L125.144 189.367L130.625 180.917H134.754L128.742 189.802ZM137.349 198.084C137.059 198.084 136.753 198.06 136.432 198.012C136.126 197.963 135.788 197.899 135.417 197.818L135.659 194.51C135.884 194.575 136.118 194.607 136.359 194.607C137.019 194.607 137.534 194.341 137.904 193.81C138.275 193.263 138.54 192.482 138.701 191.468C138.862 190.454 138.967 189.223 139.015 187.774L139.257 180.917H152.247V197.818H148.384V183.21L149.277 184.104H141.816L142.613 183.162L142.468 187.629C142.42 189.287 142.307 190.76 142.13 192.048C141.953 193.335 141.679 194.43 141.309 195.331C140.939 196.233 140.432 196.917 139.788 197.384C139.144 197.851 138.331 198.084 137.349 198.084ZM160.066 187.726H168.203V190.768H160.066V187.726ZM160.356 194.679H169.555V197.818H156.468V180.917H169.241V184.055H160.356V194.679ZM172.714 197.818V180.917H176.602V191.927L184.666 180.917H188.337V197.818H184.473V186.832L176.409 197.818H172.714ZM196.191 197.818V183.21L197.084 184.104H190.806V180.917H205.463V184.104H199.185L200.054 183.21V197.818H196.191ZM216.104 186.47C218.148 186.47 219.726 186.929 220.836 187.846C221.947 188.748 222.503 190.108 222.503 191.927C222.503 193.859 221.883 195.323 220.643 196.321C219.42 197.319 217.722 197.818 215.549 197.818H207.919V180.917H211.806V186.47H216.104ZM215.331 194.921C216.329 194.921 217.118 194.671 217.698 194.172C218.277 193.673 218.567 192.949 218.567 191.999C218.567 191.066 218.277 190.398 217.698 189.995C217.134 189.577 216.345 189.367 215.331 189.367H211.806V194.921H215.331ZM100.347 227.108C99.0436 227.108 97.8283 226.899 96.7015 226.48C95.5908 226.046 94.625 225.434 93.8041 224.645C92.9831 223.857 92.3392 222.931 91.8724 221.869C91.4217 220.806 91.1964 219.639 91.1964 218.367C91.1964 217.096 91.4217 215.929 91.8724 214.866C92.3392 213.804 92.9831 212.878 93.8041 212.09C94.6411 211.301 95.615 210.697 96.7257 210.279C97.8364 209.844 99.0517 209.627 100.372 209.627C101.836 209.627 103.156 209.884 104.331 210.399C105.523 210.898 106.521 211.639 107.326 212.621L104.814 214.939C104.235 214.279 103.591 213.788 102.883 213.466C102.174 213.128 101.402 212.959 100.565 212.959C99.776 212.959 99.0517 213.088 98.3917 213.345C97.7317 213.603 97.1603 213.973 96.6774 214.456C96.1945 214.939 95.8162 215.51 95.5425 216.17C95.285 216.83 95.1562 217.563 95.1562 218.367C95.1562 219.172 95.285 219.905 95.5425 220.565C95.8162 221.225 96.1945 221.796 96.6774 222.279C97.1603 222.762 97.7317 223.132 98.3917 223.39C99.0517 223.647 99.776 223.776 100.565 223.776C101.402 223.776 102.174 223.615 102.883 223.293C103.591 222.955 104.235 222.448 104.814 221.772L107.326 224.09C106.521 225.072 105.523 225.82 104.331 226.335C103.156 226.851 101.828 227.108 100.347 227.108ZM113.356 226.818V212.21L114.249 213.104H107.971V209.917H122.628V213.104H116.35L117.219 212.21V226.818H113.356ZM125.084 226.818V209.917H128.971V220.927L137.036 209.917H140.706V226.818H136.843V215.832L128.778 226.818H125.084ZM155.852 226.818L150.588 218.681L153.751 216.774L160.295 226.818H155.852ZM144.866 226.818V209.917H148.753V226.818H144.866ZM147.618 220.009V216.75H153.51V220.009H147.618ZM154.114 218.802L150.516 218.367L155.997 209.917H160.126L154.114 218.802ZM165.725 216.726H173.862V219.768H165.725V216.726ZM166.015 223.679H175.214V226.818H162.127V209.917H174.9V213.055H166.015V223.679ZM178.374 226.818V209.917H185.69C187.203 209.917 188.507 210.166 189.601 210.665C190.696 211.148 191.541 211.848 192.136 212.766C192.732 213.683 193.03 214.778 193.03 216.049C193.03 217.305 192.732 218.392 192.136 219.309C191.541 220.227 190.696 220.935 189.601 221.434C188.507 221.917 187.203 222.158 185.69 222.158H180.547L182.285 220.396V226.818H178.374ZM182.285 220.83L180.547 218.971H185.472C186.68 218.971 187.581 218.714 188.177 218.198C188.772 217.683 189.07 216.967 189.07 216.049C189.07 215.116 188.772 214.391 188.177 213.876C187.581 213.361 186.68 213.104 185.472 213.104H180.547L182.285 211.245V220.83Z" fill="black"/>
</svg>
