<svg width="48" height="56" viewBox="0 0 48 56" fill="none" xmlns="http://www.w3.org/2000/svg">
  <path fill-rule="evenodd" clip-rule="evenodd"
    d="M22.4085 1.02744C21.1041 1.48261 20.3116 2.10196 11.8188 9.30443C1.36526 18.1697 1.69599 17.85 1.0216 19.742L0.727539 20.5671V35.5451V50.5231L1.01714 51.3351C1.74158 53.366 3.36715 54.8886 5.35355 55.397C6.44206 55.6755 42.3027 55.625 43.1977 55.3436C45.4625 54.6317 47.0753 52.852 47.5355 50.5564C47.7481 49.4964 47.8056 21.9957 47.5981 20.6242C47.2439 18.283 47.0558 18.0885 36.7496 9.41179C25.7088 0.116407 25.451 -0.0342869 22.4085 1.02744ZM25.2974 4.85128C26.8541 5.57571 43.1528 19.5254 43.6792 20.584C44.1437 21.5179 44.1554 21.9265 44.1198 36.0024C44.0813 51.1489 44.148 50.0498 43.2113 50.9871C42.2311 51.968 43.7595 51.8951 24.192 51.8951C4.62454 51.8951 6.1529 51.968 5.17275 50.9871C4.23606 50.0498 4.30272 51.1489 4.26427 36.0024C4.22402 20.1317 4.16294 20.989 5.43336 19.6143C5.87724 19.1341 14.3961 11.8612 20.623 6.64647C23.0425 4.62021 24.0057 4.25033 25.2974 4.85128ZM13.5855 43.9916C11.5399 44.5625 11.4851 46.8145 13.5017 47.4287C14.4011 47.7027 33.9969 47.6984 34.8977 47.424C36.664 46.886 36.8878 45.0006 35.2832 44.1774L34.7259 43.8916L24.415 43.8693C16.3898 43.8519 13.989 43.879 13.5855 43.9916Z"
    fill="#0E5F8C" />
  <path fill-rule="evenodd" clip-rule="evenodd"
    d="M22.5541 15.0464C22.4884 15.0732 22.2151 15.1325 21.9466 15.1782C16.198 16.1565 12.1562 20.2562 10.8333 26.4508C10.6923 27.111 10.6923 29.9093 10.8333 30.5695C12.0011 36.0378 15.138 39.7432 19.9501 41.3388C20.502 41.5218 20.8291 41.6043 22.1979 41.9062C22.5504 41.984 22.8874 41.9995 24.2317 41.9997L25.8428 42L26.7409 41.8049C30.3374 41.0235 32.2783 39.7126 31.4485 38.6252C31.0332 38.0809 30.5701 38.0887 29.3792 38.6601C17.6562 44.2849 6.99679 29.2907 16.3437 20.3233C25.0423 11.9778 39.2068 21.3532 34.8551 32.576C34.6444 33.1193 34.5366 33.343 33.9333 34.49C33.4586 35.3922 33.5426 35.9595 34.1999 36.2922C35.3153 36.8567 36.7587 34.5416 37.554 30.9127L37.7275 30.1206L37.7272 28.5101C37.727 27.1666 37.7114 26.8296 37.6336 26.4772C37.3316 25.1091 37.249 24.7821 37.0659 24.2305C35.4698 19.4208 31.7489 16.2739 26.2919 15.1184C25.787 15.0115 22.7814 14.9536 22.5541 15.0464ZM23.7987 22.9152C23.5893 23.0257 23.3821 23.2648 23.274 23.5205C23.2277 23.63 23.1982 24.1583 23.1779 25.2364C23.1348 27.5368 23.2579 27.4137 20.9564 27.4569C19.8779 27.4771 19.3494 27.5067 19.2398 27.5529C18.2974 27.9509 18.2974 29.0694 19.2398 29.4674C19.3494 29.5136 19.8779 29.5432 20.9564 29.5634C23.2579 29.6065 23.1348 29.4835 23.1779 31.7839C23.2087 33.422 23.2198 33.4993 23.4724 33.8303C23.8526 34.3286 24.6107 34.3286 24.9909 33.8303C25.2435 33.4993 25.2546 33.422 25.2854 31.7839C25.3187 30.009 25.3399 29.9117 25.7406 29.7016C25.9327 29.6009 26.0668 29.5904 27.5069 29.5634C28.5854 29.5432 29.1139 29.5136 29.2235 29.4674C30.1659 29.0694 30.1659 27.9509 29.2235 27.5529C29.1139 27.5067 28.5854 27.4771 27.5069 27.4569C25.2054 27.4137 25.3285 27.5368 25.2854 25.2364C25.2651 24.1583 25.2356 23.63 25.1893 23.5205C24.9331 22.9144 24.3122 22.6441 23.7987 22.9152Z"
    fill="#0E5F8C" />
</svg>