<svg width="57" height="56" viewBox="0 0 57 56" fill="none" xmlns="http://www.w3.org/2000/svg">
<path fill-rule="evenodd" clip-rule="evenodd" d="M5.29027 0.683218C5.25625 0.737356 4.82268 1.01127 4.32677 1.29173C3.10404 1.9835 2.22476 2.83821 1.51654 4.02312C1.19782 4.55634 0.893968 5.01877 0.841248 5.05078C0.715027 5.12747 0.715027 44.1646 0.841248 44.2413C0.893968 44.2733 1.2 44.7395 1.52146 45.2772C2.59828 47.0789 4.179 48.2194 6.05427 48.5474C7.38418 48.7802 21.4724 48.7778 22.2456 48.5447C23.9778 48.0227 24.1306 46.2768 22.5116 45.506C22.1665 45.3418 21.3784 45.3182 14.527 45.2668C5.83103 45.2017 6.29129 45.2521 5.27496 44.2541C4.20787 43.206 4.3003 45.0659 4.3003 24.646C4.3003 4.22217 4.20744 6.08649 5.27758 5.03553C6.33504 3.99691 5.07228 4.07576 20.6545 4.07576H34.2742L35.0064 4.4297C36.8053 5.29955 36.7661 5.10341 36.8364 13.59L36.8946 20.6336L37.2228 21.2588C37.946 22.6366 39.4204 22.6384 40.1213 21.2623L40.3947 20.7253L40.4279 13.9044C40.4759 4.05567 40.2366 3.21342 36.8439 1.29163C36.3684 1.02233 35.9486 0.753039 35.911 0.693316C35.822 0.551848 5.3793 0.541751 5.29027 0.683218ZM9.38753 9.92567C7.73156 10.4869 7.57701 12.1831 9.113 12.9376L9.65977 13.2062H14.7458H19.8318L20.3786 12.9376C21.9531 12.1642 21.7335 10.3929 20.0004 9.88753C19.0384 9.60696 10.2343 9.63865 9.38753 9.92567ZM9.58857 18.993C7.57111 19.5329 7.5185 21.6537 9.5085 22.2219C10.0487 22.376 11.2535 22.3914 20.8241 22.3655L31.5352 22.3366L32.082 22.068C33.469 21.3868 33.4743 19.9041 32.0923 19.188L31.5352 18.8993L20.8162 18.8781C12.4486 18.8615 9.98571 18.8868 9.58857 18.993ZM39.9025 25.8953C23.3529 28.2229 21.5206 49.8459 37.4369 54.9913L39.2641 55.582H41.6686C43.0539 55.582 44.1594 55.5367 44.2765 55.4751C44.3883 55.4164 45.0618 55.1951 45.7732 54.9834C50.9532 53.4417 54.4364 49.9787 56.2089 44.6083L56.7466 42.9793V40.6812V38.3832L56.1402 36.5943C53.6951 29.3818 46.9084 24.9101 39.9025 25.8953ZM9.38633 28.2513C7.56214 28.8308 7.60523 30.8157 9.45381 31.3622C10.4462 31.6555 22.0604 31.5477 22.7404 31.2388C24.118 30.6131 24.118 28.9909 22.7404 28.3652C22.0795 28.065 10.2891 27.9644 9.38633 28.2513ZM44.2974 29.6295C53.5482 31.9342 56.2724 43.4247 48.9892 49.4199C42.4479 54.8042 32.4434 51.5751 30.3312 43.3973C28.2173 35.2139 35.9832 27.5583 44.2974 29.6295ZM40.8795 33.1661C40.0786 33.582 39.8821 34.0997 39.7973 36.0167C39.6829 38.6036 39.4583 38.8242 36.8242 38.9365C32.3685 39.1266 32.4381 42.2714 36.9025 42.4739C39.4342 42.5887 39.6865 42.8368 39.7955 45.3197C39.987 49.674 43.1944 49.6852 43.3986 45.3321C43.5161 42.8261 43.7578 42.5887 46.3096 42.4733C50.7421 42.2728 50.7307 39.1228 46.2969 38.9348C43.7697 38.8277 43.5174 38.5806 43.3972 36.0936C43.2693 33.4472 42.3643 32.395 40.8795 33.1661Z" fill="#0E5F8C"/>
</svg>
