<svg width="53" height="67" viewBox="0 0 53 67" fill="none" xmlns="http://www.w3.org/2000/svg">
<path fill-rule="evenodd" clip-rule="evenodd" d="M23.9315 0.128814C23.8874 0.199564 23.4244 0.505319 22.9024 0.808066C22.2772 1.17071 21.4653 1.84486 20.522 2.78448C18.8019 4.49804 18.622 4.58292 16.4579 4.70362C13.8924 4.84682 13.7028 4.97708 12.5675 7.37721C11.9933 8.59081 11.749 8.67399 8.44601 8.77822C3.37956 8.93815 0.749871 10.7569 0.14974 14.5161C-0.0804812 15.9585 -0.0311951 60.7832 0.201794 61.8742C0.563928 63.5695 1.46544 64.8159 3.08147 65.8556C3.60385 66.1917 4.19199 66.5772 4.38847 66.712C4.94723 67.096 48.0528 67.096 48.6115 66.712C48.808 66.5772 49.3962 66.1917 49.9185 65.8556C51.5346 64.8159 52.4361 63.5695 52.7982 61.8742C53.0312 60.7832 53.0805 15.9585 52.8503 14.5161C52.2505 10.7591 49.6243 8.94142 44.554 8.77455C40.9851 8.65699 40.8563 8.59565 40.0799 6.64133C39.4966 5.17337 38.8861 4.84826 36.4495 4.70794C34.0852 4.5718 34.0599 4.55886 32.1135 2.49939C31.3737 1.71644 30.8909 1.35981 29.2916 0.414168L28.591 0H26.3014C24.9406 0 23.9792 0.0523104 23.9315 0.128814ZM28.0235 3.52036C28.8786 3.8949 29.543 4.54094 30.3879 5.81954C31.5343 7.55441 31.9646 7.81413 33.9539 7.97211C36.4267 8.16854 36.8448 8.63266 36.8448 11.1814C36.8448 14.5058 37.4575 14.32 26.5 14.32C15.5425 14.32 16.1552 14.5058 16.1552 11.1814C16.1552 8.6766 16.572 8.19155 18.9139 7.97172C20.767 7.79766 21.3229 7.44901 22.3451 5.81954C23.8421 3.43313 25.9113 2.59525 28.0235 3.52036ZM11.6661 12.3668C12.3374 12.7161 12.6305 13.2933 12.795 14.5898C12.9762 16.0172 13.3508 16.703 14.1801 17.1266L14.8301 17.4586L26.2222 17.4942C40.4958 17.5386 39.809 17.6832 40.209 14.552C40.492 12.3373 40.8929 12.0963 44.2904 12.0982C47.584 12.1001 48.7528 12.6629 49.5166 14.615C49.8118 15.3696 49.9762 58.8759 49.6903 60.5493C49.4433 61.9934 48.7466 62.8749 47.4441 63.3911C46.539 63.7498 6.46099 63.7498 5.55592 63.3911C4.2534 62.8749 3.55667 61.9934 3.30972 60.5493C3.02546 58.8865 3.18795 15.37 3.48116 14.6214C3.95742 13.4057 5.11656 12.4233 6.38285 12.1622C7.51379 11.9289 11.0911 12.0675 11.6661 12.3668ZM18.5091 22.8937C17.9458 23.008 17.4431 23.3825 15.8282 24.8907C13.722 26.858 12.923 27.0975 11.5634 26.1692C9.95517 25.0712 8.79576 25.2003 8.51704 26.5084C8.20512 27.973 11.6669 31.3027 13.2559 31.0661C14.2084 30.9245 19.5171 26.2622 20.0898 25.0645C20.7193 23.7479 19.8928 22.6128 18.5091 22.8937ZM25.1454 26.4419C23.6037 26.8549 23.4209 28.4978 24.8314 29.2638C25.4369 29.5925 41.9363 29.6829 43.0435 29.3634C44.6759 28.8925 44.9019 27.3632 43.4552 26.5776C42.9597 26.3086 26.1094 26.1837 25.1454 26.4419ZM17.9527 35.9307C17.5838 36.1285 16.6026 36.9144 15.7722 37.677C13.4955 39.7681 13.0444 39.8808 11.3228 38.7877C9.88124 37.8724 8.9 37.9834 8.5629 39.1C8.11471 40.5841 11.3654 43.9274 13.1163 43.7834C14.6314 43.6587 20.3063 38.3511 20.3063 37.0588C20.3063 35.7258 19.2651 35.2269 17.9527 35.9307ZM25.1603 39.1773C23.318 39.74 23.4461 41.7007 25.3519 42.1102C26.6679 42.3928 42.9261 42.2307 43.5385 41.9288C44.9089 41.2532 44.6336 39.6303 43.0705 39.1695C42.0979 38.8829 26.1016 38.8898 25.1603 39.1773ZM18.5091 48.395C17.9408 48.5103 17.4374 48.8874 15.7948 50.4284C13.744 52.3524 12.996 52.6086 11.7719 51.806C9.90114 50.5796 8.80709 50.6481 8.51704 52.0098C8.20512 53.4743 11.6669 56.804 13.2559 56.5675C14.1524 56.4341 18.6792 52.5386 19.9319 50.8225C20.8704 49.5367 20.0214 48.0881 18.5091 48.395ZM25.1454 51.9432C23.6588 52.3414 23.3996 53.9403 24.7016 54.6806L25.2481 54.9914L33.7972 55.0286C41.1764 55.0608 42.4418 55.0383 43.0435 54.8648C44.6759 54.3938 44.9019 52.8645 43.4552 52.079C42.9597 51.81 26.1094 51.6851 25.1454 51.9432Z" fill="#0E5F8C"/>
</svg>
