<svg width="48" height="56" viewBox="0 0 48 56" fill="none" xmlns="http://www.w3.org/2000/svg">
<path fill-rule="evenodd" clip-rule="evenodd" d="M22.4085 1.02744C21.1041 1.48261 20.3116 2.10196 11.8188 9.30443C1.36526 18.1697 1.69599 17.85 1.0216 19.742L0.727539 20.5671V35.5451V50.5231L1.01714 51.3351C1.74158 53.366 3.36715 54.8886 5.35355 55.397C6.44206 55.6755 42.3027 55.625 43.1977 55.3436C45.4625 54.6317 47.0753 52.852 47.5355 50.5564C47.7481 49.4964 47.8056 21.9957 47.5981 20.6242C47.2439 18.283 47.0558 18.0885 36.7496 9.41179C25.7088 0.116407 25.451 -0.0342869 22.4085 1.02744ZM25.2974 4.85128C26.8541 5.57571 43.1528 19.5254 43.6792 20.584C44.1437 21.5179 44.1554 21.9265 44.1198 36.0024C44.0813 51.1489 44.148 50.0498 43.2113 50.9871C42.2311 51.968 43.7595 51.8951 24.192 51.8951C4.62454 51.8951 6.1529 51.968 5.17275 50.9871C4.23606 50.0498 4.30272 51.1489 4.26427 36.0024C4.22402 20.1317 4.16294 20.989 5.43336 19.6143C5.87724 19.1341 14.3961 11.8612 20.623 6.64647C23.0425 4.62021 24.0057 4.25033 25.2974 4.85128ZM13.5855 43.9916C11.5399 44.5625 11.4851 46.8145 13.5017 47.4287C14.4011 47.7027 33.9969 47.6984 34.8977 47.424C36.664 46.886 36.8878 45.0006 35.2832 44.1774L34.7259 43.8916L24.415 43.8693C16.3898 43.8519 13.989 43.879 13.5855 43.9916Z" fill="#0E5F8C"/>
</svg>
