<svg width="62" height="62" viewBox="0 0 62 62" fill="none" xmlns="http://www.w3.org/2000/svg">
<path d="M2.85494 0H26.1328C27.2275 0.127148 28.2447 0.833125 28.6758 1.85758C29.01 2.5684 28.9313 3.37125 28.9385 4.13293C33.2131 4.13414 37.4878 4.13414 41.7624 4.13293C45.951 8.30461 50.1215 12.4945 54.3065 16.6698C54.5051 16.8926 54.8369 17.0863 54.7739 17.4327C54.7666 22.6433 54.7739 27.8552 54.7703 33.0659C54.0812 33.0671 53.3934 33.0671 52.7056 33.0659C52.702 28.2439 52.7068 23.4232 52.7032 18.6012C48.5703 18.5964 44.4373 18.6048 40.3044 18.5976C40.3044 14.4646 40.3044 10.3329 40.3044 6.2C36.5154 6.2 32.7276 6.19879 28.9385 6.20121C28.9361 14.5082 28.9385 22.8153 28.9385 31.1235C28.9373 31.8416 28.993 32.5948 28.6806 33.2645C28.2071 34.3943 27.018 35.1608 25.7937 35.1317C20.2973 35.1353 14.8008 35.1317 9.3056 35.1341C9.30318 43.4 9.30439 51.6659 9.3056 59.9317C23.7715 59.9341 38.2373 59.9341 52.7032 59.9329C52.702 55.8012 52.7117 51.6707 52.6983 47.5402C53.3886 47.5269 54.0788 47.5341 54.7703 47.5341C54.7727 52.3561 54.7703 57.178 54.7715 62H7.23732C7.23732 53.0451 7.23732 44.089 7.23732 35.1341C5.79631 35.1232 4.35287 35.1523 2.91186 35.1208C1.42967 35.0675 0.160605 33.8082 0.00439453 32.3478V2.80574C0.146074 1.34656 1.38971 0.112617 2.85494 0ZM2.93244 2.08523C2.42869 2.15305 2.04725 2.64105 2.07268 3.14238C2.06904 12.7548 2.07025 22.3672 2.07268 31.9796C2.0315 32.567 2.55826 33.1022 3.14799 33.0646C10.6994 33.0683 18.2508 33.0695 25.8022 33.0634C26.3907 33.0973 26.9102 32.5597 26.869 31.9748C26.8739 22.6082 26.869 13.2404 26.8715 3.87379C26.869 3.55168 26.8884 3.22715 26.8472 2.90625C26.771 2.41703 26.2926 2.04527 25.801 2.06949C18.3319 2.06102 10.8617 2.07191 3.39139 2.06465C3.2376 2.06223 3.08502 2.06949 2.93244 2.08523ZM42.3727 7.66402C42.3799 10.6236 42.3497 13.5831 42.3872 16.5414C45.3383 16.522 48.2893 16.539 51.2404 16.5329C48.2893 13.571 45.3334 10.6151 42.3727 7.66402Z" fill="#0E5F8C"/>
<path d="M3.10638 3.09947C10.6832 3.09705 18.2601 3.09705 25.8369 3.09947C25.8393 5.50924 25.8393 7.92021 25.8381 10.3312C18.2601 10.3324 10.6832 10.3324 3.10638 10.3312C3.10396 7.92021 3.10517 5.50924 3.10638 3.09947ZM5.17345 5.16654C5.17224 6.19826 5.17224 7.23119 5.17345 8.26291C11.3722 8.26533 17.571 8.26533 23.771 8.26412C23.7722 7.23119 23.7722 6.19826 23.771 5.16654C17.571 5.16412 11.3722 5.16533 5.17345 5.16654Z" fill="#0E5F8C"/>
<path d="M5.61863 11.4509C6.4784 11.2813 7.36602 11.4012 8.23789 11.3673C9.26598 11.3298 10.2323 12.169 10.3195 13.197C10.3607 13.9636 10.3316 14.7325 10.3364 15.5002C10.3437 16.2874 9.85813 17.0478 9.14125 17.3724C8.56 17.6545 7.89641 17.5467 7.27398 17.5661C6.56074 17.5455 5.77969 17.6787 5.14395 17.2731C4.53121 16.911 4.13281 16.2171 4.14008 15.5039C4.13887 14.77 4.12918 14.0374 4.14613 13.3048C4.17883 12.4572 4.80609 11.6822 5.61863 11.4509ZM6.20473 13.4344C6.20352 14.1222 6.20473 14.8112 6.20473 15.499C6.89375 15.5015 7.58156 15.5002 8.27059 15.499C8.2718 14.8112 8.2718 14.1222 8.27059 13.4344C7.58156 13.4332 6.89375 13.4332 6.20473 13.4344Z" fill="#0E5F8C"/>
<path d="M12.8833 11.4429C13.7067 11.2891 14.5532 11.4018 15.3863 11.3666C16.3054 11.3109 17.2124 11.9273 17.4752 12.8125C17.6653 13.6129 17.5309 14.4473 17.5733 15.261C17.635 16.053 17.2608 16.8752 16.5609 17.2748C15.7278 17.7652 14.7215 17.4976 13.8072 17.5691C13.0395 17.6393 12.2173 17.3656 11.7656 16.7129C11.125 15.835 11.4532 14.6895 11.3696 13.6844C11.2691 12.6987 11.9133 11.6924 12.8833 11.4429ZM13.4391 13.4349C13.4379 14.1227 13.4379 14.8118 13.4391 15.4996C14.1269 15.502 14.816 15.5008 15.505 15.5008C15.505 14.8118 15.505 14.1227 15.5038 13.4349C14.816 13.4337 14.1269 13.4337 13.4391 13.4349Z" fill="#0E5F8C"/>
<path d="M20.2459 11.4109C21.0839 11.3177 21.9328 11.3819 22.7756 11.3698C23.8242 11.3601 24.7712 12.2707 24.7978 13.3206C24.8063 14.1186 24.8196 14.9178 24.7906 15.7146C24.7119 16.6785 23.8642 17.5056 22.8979 17.5552C22.1277 17.577 21.3551 17.5686 20.585 17.5601C19.5993 17.5443 18.7093 16.7161 18.6221 15.734C18.5809 15.051 18.6172 14.3644 18.6027 13.6802C18.4937 12.6497 19.2142 11.6023 20.2459 11.4109ZM20.6734 13.4332C20.671 14.121 20.671 14.81 20.6722 15.4978C21.3612 15.4991 22.0502 15.5003 22.7393 15.4978C22.738 14.81 22.7392 14.1222 22.738 13.4332C22.049 13.4308 21.3612 13.432 20.6734 13.4332Z" fill="#0E5F8C"/>
<path d="M5.50261 18.7212C6.35148 18.4827 7.2512 18.6474 8.12187 18.5977C9.20566 18.5093 10.2604 19.3848 10.3246 20.4783C10.35 21.2775 10.3439 22.0792 10.3282 22.8784C10.2846 23.8944 9.37882 24.7735 8.36405 24.7929C7.59511 24.8026 6.82495 24.8074 6.05601 24.7905C5.06304 24.7445 4.19601 23.8786 4.14757 22.8869C4.12941 22.1191 4.13546 21.3514 4.14394 20.5849C4.15726 19.7614 4.72882 18.9925 5.50261 18.7212ZM6.20495 20.666C6.20495 21.355 6.20374 22.0441 6.20616 22.7319C6.89398 22.7331 7.58179 22.7319 8.2696 22.7331C8.27444 22.0441 8.27081 21.355 8.27081 20.6672C7.58179 20.6648 6.89398 20.6648 6.20495 20.666Z" fill="#0E5F8C"/>
<path d="M12.7596 18.7125C13.6121 18.4885 14.5094 18.6447 15.3813 18.5975C16.3682 18.5321 17.3346 19.2526 17.5235 20.2274C17.624 21.0266 17.5501 21.8367 17.5719 22.6408C17.6094 23.4594 17.1214 24.2707 16.3719 24.6062C15.7616 24.898 15.0689 24.7733 14.4174 24.7987C13.8277 24.7793 13.2089 24.8786 12.6482 24.6413C11.8987 24.3397 11.3695 23.566 11.3743 22.7558C11.3695 22.0353 11.3659 21.3136 11.3768 20.5931C11.3864 19.7588 11.9713 18.9777 12.7596 18.7125ZM13.439 20.6658C13.4378 21.3548 13.4366 22.0426 13.439 22.7316C14.128 22.7328 14.8158 22.7316 15.5036 22.7328C15.506 22.0438 15.5048 21.3548 15.5036 20.6658C14.8158 20.6645 14.128 20.6645 13.439 20.6658Z" fill="#0E5F8C"/>
<path d="M20.0229 18.7052C20.4806 18.5563 20.9686 18.6083 21.4409 18.6011C21.9628 18.612 22.4847 18.5756 23.0042 18.6217C23.973 18.7234 24.7819 19.6037 24.7988 20.5785C24.8109 21.3112 24.8073 22.0426 24.8012 22.7752C24.8025 23.7173 24.0711 24.5904 23.1435 24.7587C22.4169 24.8507 21.6807 24.7781 20.9505 24.8035C19.7686 24.95 18.5843 23.9752 18.6073 22.7631C18.6037 22.0389 18.5988 21.3148 18.6097 20.5919C18.623 19.7466 19.2212 18.9607 20.0229 18.7052ZM20.672 20.6681C20.6707 21.3572 20.6695 22.0462 20.6732 22.734C21.361 22.734 22.05 22.7352 22.7378 22.734C22.739 22.0462 22.7378 21.3572 22.7378 20.6694C22.05 20.6657 21.361 20.6669 20.672 20.6681Z" fill="#0E5F8C"/>
<path d="M33.0717 21.6998C33.7607 21.6998 34.4485 21.6985 35.1364 21.6998C35.1388 22.3888 35.1388 23.0766 35.1376 23.7656C34.4485 23.7668 33.7595 23.7668 33.0717 23.7656C33.0705 23.0766 33.0693 22.3876 33.0717 21.6998Z" fill="#0E5F8C"/>
<path d="M37.205 21.6995C41.3379 21.6995 45.4721 21.6983 49.605 21.7007C49.6038 22.3885 49.6086 23.0776 49.6026 23.7666C45.4697 23.7642 41.3379 23.7678 37.205 23.7654C37.2038 23.0764 37.2038 22.3885 37.205 21.6995Z" fill="#0E5F8C"/>
<path d="M5.97474 25.8485C6.73037 25.8146 7.48842 25.8388 8.24525 25.834C9.07595 25.8134 9.88244 26.3474 10.184 27.1212C10.4201 27.6964 10.3172 28.3321 10.3378 28.9364C10.3184 29.6 10.4358 30.3169 10.1004 30.9248C9.75529 31.6017 9.01178 32.0437 8.25373 32.0316C7.51627 32.0303 6.77881 32.0461 6.04134 32.0231C5.06533 31.971 4.21283 31.1246 4.14986 30.1498C4.1208 29.5867 4.14744 29.0224 4.13654 28.4593C4.14259 28.0573 4.10748 27.6419 4.24189 27.2544C4.47924 26.5012 5.18763 25.9224 5.97474 25.8485ZM6.20603 27.8998C6.20361 28.5876 6.20603 29.2767 6.20482 29.9645C6.89263 29.9681 7.58166 29.9669 8.27068 29.9657C8.2731 29.2779 8.27068 28.5913 8.2731 27.9035C7.58408 27.8962 6.89506 27.901 6.20603 27.8998Z" fill="#0E5F8C"/>
<path d="M13.2452 25.845C14.0347 25.8208 14.8267 25.8317 15.6174 25.8389C16.614 25.868 17.5028 26.7265 17.5598 27.7244C17.584 28.4921 17.5731 29.261 17.5658 30.03C17.5573 30.8062 17.056 31.5412 16.3476 31.8512C15.7809 32.1164 15.1427 32.0147 14.5397 32.0329C14.0166 32.0159 13.485 32.0825 12.9679 31.9772C12.0778 31.7858 11.3828 30.9406 11.3755 30.0276C11.3707 29.261 11.3585 28.4933 11.3828 27.7268C11.4373 26.7568 12.2764 25.9116 13.2452 25.845ZM13.4402 27.8999C13.4365 28.589 13.4377 29.2768 13.4389 29.9658C14.128 29.967 14.8158 29.967 15.5048 29.9658C15.5036 29.2768 15.5072 28.5878 15.5024 27.8987C14.8146 27.9012 14.128 27.8987 13.4402 27.8999Z" fill="#0E5F8C"/>
<path d="M20.2803 25.8714C20.8216 25.7975 21.3713 25.8483 21.9175 25.8338C22.4588 25.8459 23.0279 25.7696 23.5389 25.9961C24.2691 26.2952 24.7886 27.0435 24.7995 27.8355C24.808 28.5693 24.8092 29.3044 24.7995 30.0382C24.7862 30.7987 24.303 31.5228 23.6128 31.8376C22.816 32.1888 21.9211 31.9745 21.0807 32.0362C20.4014 32.0859 19.67 31.9273 19.1929 31.4102C18.8042 31.0154 18.5922 30.462 18.6044 29.9098C18.6092 29.1869 18.5898 28.464 18.614 27.7422C18.6613 26.8353 19.389 26.0288 20.2803 25.8714ZM20.6702 27.9033C20.6714 28.5911 20.6702 29.2789 20.6714 29.9667C21.3592 29.9692 22.0471 29.9655 22.7349 29.9692C22.7397 29.2789 22.7373 28.5899 22.7373 27.9009C22.0483 27.9009 21.3592 27.8985 20.6702 27.9033Z" fill="#0E5F8C"/>
<path d="M33.0727 25.832C33.7593 25.832 34.4471 25.832 35.1362 25.832C35.1398 26.5211 35.1374 27.2089 35.1374 27.8979C34.4484 27.9003 33.7593 27.8991 33.0715 27.8979C33.0703 27.2089 33.0691 26.5211 33.0727 25.832Z" fill="#0E5F8C"/>
<path d="M37.2061 25.8323C41.339 25.8323 45.472 25.8311 49.6049 25.8335C49.6049 26.5214 49.6073 27.2104 49.6037 27.8994C45.4708 27.8982 41.3378 27.9018 37.2049 27.8982C37.2049 27.2092 37.2025 26.5214 37.2061 25.8323Z" fill="#0E5F8C"/>
<path d="M33.073 29.9655C33.7548 29.9619 34.4366 29.9752 35.1195 29.957C35.1583 30.6485 35.1328 31.3411 35.1328 32.0338C34.4462 32.0326 33.7596 32.0338 33.073 32.0338C33.0694 31.3448 33.0694 30.6545 33.073 29.9655Z" fill="#0E5F8C"/>
<path d="M37.2059 29.9648C41.3388 29.9648 45.4718 29.9648 49.6047 29.9661C49.6059 30.6551 49.6059 31.3429 49.6047 32.0319C45.4718 32.0331 41.3388 32.0331 37.2059 32.0331C37.2035 31.3429 37.2035 30.6539 37.2059 29.9648Z" fill="#0E5F8C"/>
<path d="M58.1842 32.1712C59.2353 31.9326 60.4015 32.2681 61.1426 33.0552C62.1101 34.0566 62.2445 35.7265 61.4598 36.8733C61.0638 37.4364 60.5238 37.8747 60.0539 38.3724C54.9474 43.4801 49.8409 48.5867 44.7344 53.6932C44.1652 54.2127 43.6905 54.8484 43.0487 55.2783C41.2299 56.1272 39.405 56.9639 37.5777 57.7922C36.7954 58.1543 35.8848 57.2473 36.2469 56.4638C36.9178 54.9647 37.6189 53.4789 38.3019 51.9858C38.5489 51.5123 38.6821 50.9601 39.0744 50.5787C44.8881 44.7686 50.7031 38.9609 56.5107 33.1448C56.96 32.6677 57.54 32.3092 58.1842 32.1712ZM57.4177 35.161C57.9033 35.6478 58.3913 36.1346 58.8793 36.619C59.2317 36.2145 59.7681 35.9033 59.8917 35.3463C60.0273 34.7299 59.4824 34.0978 58.8539 34.139C58.206 34.1523 57.8561 34.7796 57.4177 35.161ZM55.2344 37.3504C55.726 37.8287 56.2068 38.3191 56.6948 38.8023C56.9406 38.5625 57.1876 38.3228 57.4141 38.0648C56.9164 37.5962 56.4453 37.1009 55.9573 36.6226C55.7127 36.8612 55.4705 37.1033 55.2344 37.3504ZM40.6038 51.9906C40.1255 52.8746 39.7526 53.8155 39.3166 54.7225C40.157 54.3435 40.9938 53.956 41.8317 53.5685C42.1211 53.4365 42.3161 53.1737 42.5413 52.9594C46.7699 48.7296 50.9997 44.4998 55.2295 40.2712C54.7464 39.7819 54.2584 39.2964 53.7704 38.8108C49.3844 43.2065 44.9802 47.5864 40.6038 51.9906Z" fill="#0E5F8C"/>
<path d="M33.0715 34.0991C33.7593 34.0978 34.4484 34.0966 35.1362 34.0991C35.1337 34.7881 35.1483 35.4783 35.1277 36.1685C34.4423 36.1613 33.7569 36.1661 33.0727 36.1649C33.0691 35.4759 33.0703 34.7869 33.0715 34.0991Z" fill="#0E5F8C"/>
<path d="M37.2049 34.0993C41.3378 34.0957 45.4708 34.0993 49.6037 34.0981C49.6073 34.7859 49.6049 35.4749 49.6049 36.164C45.472 36.1664 41.339 36.1652 37.2061 36.1652C37.2025 35.4762 37.2049 34.7883 37.2049 34.0993Z" fill="#0E5F8C"/>
<path d="M23.17 37.2169C25.3 37.091 27.4664 37.6407 29.2683 38.7863C31.144 39.9633 32.6238 41.7591 33.4145 43.8286C34.221 45.9126 34.3215 48.2606 33.6967 50.4064C33.1094 52.4505 31.8669 54.2984 30.1995 55.6183C28.5151 56.9721 26.3911 57.7653 24.2308 57.8525C22.0087 57.9578 19.76 57.316 17.9303 56.053C16.0666 54.7815 14.6401 52.8816 13.9463 50.7346C13.0938 48.1395 13.3239 45.2091 14.5905 42.7872C16.2119 39.5964 19.5905 37.3876 23.17 37.2169ZM23.176 39.2864C20.6089 39.4499 18.1785 40.9102 16.8053 43.0802C15.8353 44.5854 15.3837 46.4127 15.5326 48.1965C15.6779 50.1158 16.5304 51.9685 17.8867 53.3345C19.1848 54.6592 20.9431 55.5263 22.7861 55.7382C24.697 55.9707 26.6841 55.5093 28.291 54.4473C29.95 53.3684 31.1961 51.6731 31.7277 49.7658C32.137 48.3127 32.1394 46.747 31.7289 45.2938C31.2082 43.4145 29.99 41.7397 28.3661 40.6596C26.8549 39.6363 24.9937 39.1544 23.176 39.2864Z" fill="#0E5F8C"/>
<path d="M22.7272 41.3505C23.4187 41.3117 24.1113 41.342 24.804 41.3323C24.804 41.7101 24.8052 42.0867 24.8076 42.4645C25.8442 42.674 26.8856 43.1778 27.4813 44.0847C27.7611 44.4904 27.8822 44.9772 27.9161 45.464C27.2343 45.4676 26.5538 45.464 25.872 45.4664C25.6516 44.8537 24.9808 44.597 24.3922 44.488C23.5712 44.3621 22.6473 44.4517 21.9837 44.9929C21.7572 45.1649 21.5998 45.5088 21.8178 45.7534C22.3034 46.3528 23.1377 46.4885 23.8679 46.5018C25.1212 46.5236 26.4412 46.951 27.2719 47.9319C27.8931 48.6415 28.0917 49.7071 27.6993 50.5766C27.1956 51.7221 25.9871 52.3688 24.8076 52.6001C24.8052 52.9779 24.804 53.3545 24.8052 53.7323C24.1198 53.7359 23.4344 53.725 22.7502 53.7396C22.7345 53.3593 22.7357 52.9803 22.7393 52.6013C21.7403 52.3954 20.7437 51.9256 20.1322 51.0815C19.8113 50.6553 19.6563 50.1285 19.6284 49.6006C20.3102 49.5994 20.9907 49.5957 21.6725 49.603C21.8771 50.1661 22.4741 50.4288 23.019 50.5512C23.8134 50.7098 24.6926 50.6408 25.3901 50.2024C25.6092 50.0474 25.8647 49.8222 25.8296 49.5255C25.7049 49.1416 25.321 48.9261 24.9711 48.7808C24.2324 48.4756 23.415 48.6294 22.6497 48.4526C21.6253 48.2395 20.6056 47.7115 20.0329 46.8057C19.5328 46.0356 19.5085 44.9869 19.9881 44.201C20.5645 43.2226 21.6567 42.6825 22.7381 42.4645C22.7417 42.0928 22.7405 41.721 22.7272 41.3505Z" fill="#0E5F8C"/>
</svg>
