<svg width="71" height="71" viewBox="0 0 71 71" fill="none" xmlns="http://www.w3.org/2000/svg">
  <path
    d="M26.9182 70.4139H8.38153C6.17299 70.4139 4.0549 69.5366 2.49322 67.9749C0.931541 66.4132 0.0541992 64.2951 0.0541992 62.0866L0.0541992 8.64178C0.0541992 6.43324 0.931541 4.31515 2.49322 2.75347C4.0549 1.19179 6.17299 0.314453 8.38153 0.314453L46.9371 0.314453C49.1456 0.314453 51.2637 1.19179 52.8254 2.75347C54.3871 4.31515 55.2644 6.43324 55.2644 8.64178V29.5934C55.289 29.8542 55.2589 30.1174 55.1759 30.366C55.093 30.6146 54.959 30.8431 54.7826 31.0369C54.6063 31.2307 54.3913 31.3855 54.1517 31.4915C53.912 31.5974 53.6528 31.6522 53.3908 31.6522C53.1287 31.6522 52.8695 31.5974 52.6299 31.4915C52.3902 31.3855 52.1753 31.2307 51.9989 31.0369C51.8225 30.8431 51.6885 30.6146 51.6056 30.366C51.5226 30.1174 51.4925 29.8542 51.5171 29.5934V8.64178C51.5171 8.04767 51.3998 7.4594 51.172 6.91072C50.9441 6.36204 50.6102 5.86374 50.1893 5.44442C49.7684 5.02509 49.2689 4.69298 48.7194 4.46714C48.1698 4.2413 47.5812 4.12618 46.987 4.12837H8.38153C7.78463 4.12176 7.19235 4.23363 6.63897 4.45749C6.0856 4.68135 5.58213 5.01275 5.15772 5.43252C4.7333 5.85229 4.39637 6.35208 4.16643 6.90296C3.93649 7.45383 3.81812 8.04485 3.81815 8.64178V62.1366C3.81812 62.7335 3.93649 63.3245 4.16643 63.8754C4.39637 64.4263 4.7333 64.9261 5.15772 65.3458C5.58213 65.7656 6.0856 66.097 6.63897 66.3209C7.19235 66.5447 7.78463 66.6566 8.38153 66.65H26.9182C27.4173 66.65 27.896 66.8483 28.2489 67.2012C28.6019 67.5541 28.8001 68.0328 28.8001 68.532C28.8001 69.0311 28.6019 69.5098 28.2489 69.8627C27.896 70.2157 27.4173 70.4139 26.9182 70.4139Z"
    fill="#0E5F8C" />
  <path
    d="M43.439 20.4314H11.7952C11.5343 20.456 11.2711 20.4259 11.0225 20.3429C10.7739 20.26 10.5454 20.126 10.3516 19.9496C10.1578 19.7733 10.003 19.5583 9.89701 19.3187C9.79106 19.079 9.73633 18.8198 9.73633 18.5578C9.73633 18.2957 9.79106 18.0365 9.89701 17.7969C10.003 17.5572 10.1578 17.3423 10.3516 17.1659C10.5454 16.9895 10.7739 16.8555 11.0225 16.7726C11.2711 16.6896 11.5343 16.6595 11.7952 16.6841H43.439C43.9054 16.7281 44.3387 16.9446 44.654 17.2911C44.9694 17.6376 45.1441 18.0892 45.1441 18.5578C45.1441 19.0263 44.9694 19.4779 44.654 19.8245C44.3387 20.171 43.9054 20.3874 43.439 20.4314Z"
    fill="#0E5F8C" />
  <path
    d="M29.25 35.0569H11.8458C11.3467 35.0569 10.868 34.8586 10.5151 34.5057C10.1621 34.1528 9.96387 33.6741 9.96387 33.1749C9.96387 32.6758 10.1621 32.1971 10.5151 31.8442C10.868 31.4912 11.3467 31.293 11.8458 31.293H29.25C29.7491 31.293 30.2278 31.4912 30.5807 31.8442C30.9337 32.1971 31.1319 32.6758 31.1319 33.1749C31.1319 33.6741 30.9337 34.1528 30.5807 34.5057C30.2278 34.8586 29.7491 35.0569 29.25 35.0569Z"
    fill="#0E5F8C" />
  <path
    d="M63.9417 51.0582C63.6661 51.0587 63.3932 51.0045 63.1387 50.8987C62.8843 50.7929 62.6534 50.6377 62.4594 50.442L54.8815 42.8475C54.4906 42.4566 54.271 41.9264 54.271 41.3735C54.271 40.8207 54.4906 40.2905 54.8815 39.8996C55.2724 39.5087 55.8026 39.2891 56.3555 39.2891C56.9083 39.2891 57.4385 39.5087 57.8294 39.8996L65.4239 47.4941C65.8075 47.8889 66.022 48.4176 66.022 48.9681C66.022 49.5185 65.8075 50.0472 65.4239 50.442C65.2299 50.6377 64.999 50.7929 64.7446 50.8987C64.4901 51.0045 64.2172 51.0587 63.9417 51.0582Z"
    fill="#0E5F8C" />
  <path
    d="M34.8291 70.4969L36.9442 57.8393L58.0457 36.7379C59.0073 35.7788 60.31 35.2402 61.6681 35.2402C63.0262 35.2402 64.3289 35.7788 65.2905 36.7379L68.6214 40.0688C69.5805 41.0304 70.119 42.3331 70.119 43.6912C70.119 45.0493 69.5805 46.352 68.6214 47.3136L47.4866 68.3817L34.8291 70.4969ZM40.8414 59.7713L39.9254 65.3339L45.4881 64.4013L65.6569 44.2491C65.8329 44.0687 65.9314 43.8266 65.9314 43.5746C65.9314 43.3226 65.8329 43.0805 65.6569 42.9001L62.3259 39.5692C62.1455 39.3932 61.9035 39.2947 61.6514 39.2947C61.3994 39.2947 61.1573 39.3932 60.9769 39.5692L40.8414 59.7713Z"
    fill="#0E5F8C" />
</svg>