<svg width="13" height="13" viewBox="0 0 13 13" fill="none" xmlns="http://www.w3.org/2000/svg">
<path d="M5.05049 10.2525C6.09486 10.2526 7.10935 9.90413 7.93328 9.26238L11.0417 12.3708C11.2739 12.5951 11.6439 12.5886 11.8682 12.3564C12.0869 12.1299 12.0869 11.7708 11.8682 11.5443L8.75976 8.4359C10.3522 6.386 9.98137 3.43332 7.93148 1.84088C5.88158 0.248444 2.92892 0.619267 1.33649 2.66916C-0.255951 4.71906 0.114872 7.67174 2.16477 9.26418C2.99004 9.90529 4.00544 10.2531 5.05049 10.2525ZM2.55291 3.05551C3.9323 1.67609 6.16873 1.67606 7.54815 3.05545C8.92756 4.43484 8.92759 6.67128 7.5482 8.05069C6.16881 9.43011 3.93237 9.43014 2.55296 8.05075C2.55293 8.05072 2.55293 8.05072 2.55291 8.05069C1.17352 6.68135 1.16539 4.45307 2.53473 3.07368C2.54078 3.06761 2.54683 3.06156 2.55291 3.05551Z" fill="#A1B6C1"/>
</svg>
